<?xml version="1.0" encoding="UTF-8"?>
<svg version="1.1" xmlns="http://www.w3.org/2000/svg" width="493" height="486">
<path d="M0 0 C162.69 0 325.38 0 493 0 C493 160.38 493 320.76 493 486 C330.31 486 167.62 486 0 486 C0 325.62 0 165.24 0 0 Z " fill="#FCFDFD" transform="translate(0,0)"/>
<path d="M0 0 C2.22216797 1.0847168 2.22216797 1.0847168 4.4921875 2.44921875 C5.34989746 2.9601709 6.20760742 3.47112305 7.09130859 3.99755859 C8.00992676 4.55523926 8.92854492 5.11291992 9.875 5.6875 C10.8438916 6.26838379 11.8127832 6.84926758 12.81103516 7.44775391 C15.8788543 9.2906187 18.93982435 11.14447577 22 13 C23.90619319 14.14983376 25.81244194 15.29957544 27.71875 16.44921875 C38.6038155 23.03217679 49.41034294 29.73532271 60.17944336 36.50610352 C67.7206797 41.23577495 75.33375588 45.83423125 83.0222168 50.32080078 C83.79734619 50.77825684 84.57247559 51.23571289 85.37109375 51.70703125 C86.3909436 52.30221558 86.3909436 52.30221558 87.43139648 52.90942383 C89 54 89 54 90 56 C67.23 56 44.46 56 21 56 C21 122.99 21 189.98 21 259 C13.1152507 262.37917827 13.1152507 262.37917827 9.73046875 263.31640625 C8.61381836 263.62674805 8.61381836 263.62674805 7.47460938 263.94335938 C6.71986328 264.14767578 5.96511719 264.35199219 5.1875 264.5625 C4.44435547 264.77068359 3.70121094 264.97886719 2.93554688 265.19335938 C1.41234646 265.6118787 -0.11933803 266.00056578 -1.6574707 266.36035156 C-4.0412012 266.93755002 -4.0412012 266.93755002 -6.28588867 268.08496094 C-9.26173539 269.25825801 -10.82285456 269.56574786 -14 269 C-19.69240273 265.41994094 -24.14935982 260.0109014 -28.6875 255.125 C-29.97704279 253.78378479 -31.26933935 252.44521151 -32.56445312 251.109375 C-37.271547 246.2240997 -41.90011599 241.29204797 -46.32495117 236.14868164 C-50.49443241 231.35895146 -54.97424457 226.90059923 -59.4765625 222.42578125 C-60.36483734 221.53892136 -61.25311218 220.65206146 -62.16830444 219.73832703 C-64.50881919 217.40242916 -66.85147858 215.06871183 -69.19525146 212.73608398 C-71.57469738 210.36689736 -73.95129556 207.99485789 -76.328125 205.62304688 C-80.55625162 201.40480112 -84.78657917 197.18877775 -89.01907349 192.97491455 C-90.6574243 191.34153601 -92.29166499 189.70424983 -93.92382812 188.06469727 C-96.93511433 185.07005387 -100.12415713 182.28892858 -103.3046875 179.4765625 C-105.48252775 177.47547451 -107.58246649 175.4397658 -109.66845703 173.34521484 C-110.29382355 172.71787445 -110.91919006 172.09053406 -111.56350708 171.44418335 C-112.27457108 170.72931259 -112.27457108 170.72931259 -113 170 C-113.06956928 183.68248509 -113.12284663 197.36492795 -113.15543652 211.04755402 C-113.17107952 217.40123247 -113.19229321 223.75478973 -113.22631836 230.10839844 C-113.25895997 236.24217416 -113.27686329 242.37583344 -113.28463173 248.50968933 C-113.29016657 250.84760877 -113.30097476 253.18552197 -113.31719017 255.52339172 C-113.33902781 258.80284298 -113.34196421 262.08181563 -113.34057617 265.36132812 C-113.351362 266.3237442 -113.36214783 267.28616028 -113.3732605 268.27774048 C-113.34245211 275.02285974 -112.03195883 279.93608235 -109 286 C-147.10700686 286.99369702 -147.10700686 286.99369702 -163 275 C-164.9029408 273.0970592 -164.18567548 269.61631595 -164.20773315 267.02415466 C-164.21775993 266.28573824 -164.22778672 265.54732181 -164.23811734 264.78652912 C-164.27039993 262.29318575 -164.2952121 259.7998266 -164.31982422 257.30639648 C-164.34080852 255.52614544 -164.36205485 253.74589747 -164.38354492 251.96565247 C-164.57152675 235.69199344 -164.6741448 219.41730808 -164.75568962 203.14280605 C-164.81726709 191.10909639 -164.92077254 179.07725602 -165.07838428 167.04441398 C-165.1854273 158.58833149 -165.24273266 150.13276374 -165.26382077 141.67603546 C-165.27789779 136.62327098 -165.31436758 131.57295191 -165.405056 126.52093315 C-165.48957215 121.76350994 -165.51247987 117.00970699 -165.48869324 112.25163078 C-165.49066893 110.50841523 -165.51482615 108.76505785 -165.56312943 107.02251053 C-165.70214528 101.73664233 -165.64735577 97.05804734 -164 92 C-160.05241206 88.14162887 -156.07232396 86.19910368 -151 84 C-149.33277774 83.03970364 -147.6766291 82.05931173 -146.04296875 81.04296875 C-144.42513466 80.0900321 -142.80661914 79.13825161 -141.1875 78.1875 C-134.61275604 74.31515852 -128.04266127 70.43529962 -121.484375 66.53515625 C-120.8324971 66.14750092 -120.1806192 65.75984558 -119.50898743 65.36044312 C-118.16636111 64.56199201 -116.82373518 63.76354026 -115.48110962 62.96508789 C-101.37877816 54.58013412 -87.24583254 46.24899643 -73.08052063 37.97090149 C-69.2956153 35.75888115 -65.51420486 33.54099251 -61.734375 31.3203125 C-50.4584515 24.70516482 -39.12637918 18.20431271 -27.6953125 11.86035156 C-23.25934881 9.39765616 -18.83678086 6.92985161 -14.4921875 4.30859375 C-13.52176514 3.72827393 -13.52176514 3.72827393 -12.53173828 3.13623047 C-10.90476204 2.15576438 -9.28775548 1.15880319 -7.671875 0.16015625 C-4.45144985 -1.23818625 -3.32977463 -0.92434991 0 0 Z " fill="#0561D6" transform="translate(260,54)"/>
<path d="M0 0 C2.09479171 -0.0097979 4.18863503 -0.0410471 6.28320312 -0.07226562 C20.79004162 -0.1865996 32.96027906 1.56714589 44.02539062 11.55273438 C46.67991881 16.51554794 46.24420656 20.65929975 44.63867188 25.96289062 C37.20988595 43.37483998 18.78006403 56.05001662 2.70849609 64.90185547 C1.9099118 65.34258392 1.11132751 65.78331238 0.2885437 66.23739624 C-0.61515457 66.73380112 -0.61515457 66.73380112 -1.53710938 67.24023438 C-1.52965195 68.06629181 -1.52219452 68.89234924 -1.51451111 69.74343872 C-1.45210168 77.54150153 -1.43294393 85.33822729 -1.46195126 93.13650703 C-1.4753494 97.14557866 -1.47222558 101.15319865 -1.4309082 105.16210938 C-1.39162063 109.03375392 -1.39630201 112.90311322 -1.43103218 116.77477646 C-1.43661645 118.24911829 -1.4265527 119.72360778 -1.40034294 121.1977272 C-1.21072281 132.71132913 -1.21072281 132.71132913 -4.40942383 136.39842224 C-6.72230916 137.97126718 -8.97401418 139.13033005 -11.53710938 140.24023438 C-12.55305176 140.84198486 -13.56899414 141.44373535 -14.61572266 142.0637207 C-15.5204834 142.56154053 -16.42524414 143.05936035 -17.35742188 143.57226562 C-18.37908447 144.13816406 -19.40074707 144.7040625 -20.45336914 145.28710938 C-21.51225342 145.86976563 -22.5711377 146.45242188 -23.66210938 147.05273438 C-33.95872188 152.76173244 -33.95872188 152.76173244 -44.09960938 158.74023438 C-64.15441316 170.93344056 -84.6025715 182.48908891 -104.94091797 194.20019531 C-107.21196481 195.50803299 -109.48271928 196.81637849 -111.75317383 198.12524414 C-113.95998268 199.39632869 -116.16812575 200.66510002 -118.37768555 201.93139648 C-123.19722373 204.6999415 -127.98771289 207.4933103 -132.70117188 210.43945312 C-133.86217407 211.15621216 -133.86217407 211.15621216 -135.04663086 211.88745117 C-136.4418618 212.75405521 -137.8278793 213.63578335 -139.20141602 214.53637695 C-143.79472941 217.37419116 -146.34683528 217.36706336 -151.53710938 216.24023438 C-154.53710938 214.86425781 -154.53710938 214.86425781 -157.53710938 213.09960938 C-159.22090698 212.12181519 -159.22090698 212.12181519 -160.9387207 211.12426758 C-162.13822975 210.41300101 -163.33769151 209.70165468 -164.53710938 208.99023438 C-165.78987853 208.25875776 -167.04338865 207.5285488 -168.29760742 206.79956055 C-170.83879537 205.3216654 -173.37713878 203.83906266 -175.91357422 202.35302734 C-181.02720817 199.36351048 -186.18680944 196.45627469 -191.34960938 193.55273438 C-193.21431237 192.50086314 -195.07889611 191.44878047 -196.94335938 190.39648438 C-197.85988281 189.87957031 -198.77640625 189.36265625 -199.72070312 188.83007812 C-202.62964782 187.187997 -205.53673991 185.54267753 -208.44335938 183.89648438 C-220.11131931 177.28969646 -231.80343963 170.72964224 -243.53710938 164.24023438 C-243.53710938 163.58023438 -243.53710938 162.92023438 -243.53710938 162.24023438 C-242.48523438 162.11648438 -241.43335938 161.99273437 -240.34960938 161.86523438 C-230.95631433 160.6696685 -221.68271783 159.11259104 -212.41210938 157.18945312 C-211.52241455 157.00585236 -210.63271973 156.82225159 -209.71606445 156.63308716 C-205.18563304 155.69504613 -200.66015179 154.73807132 -196.13867188 153.7578125 C-194.43824868 153.40122678 -192.73773165 153.04508816 -191.03710938 152.68945312 C-190.2544873 152.51363205 -189.47186523 152.33781097 -188.66552734 152.15666199 C-181.06278328 150.59410889 -177.19048179 153.30831936 -170.88085938 157.18945312 C-169.59870442 157.96289829 -168.31613979 158.73566467 -167.03320312 159.5078125 C-165.0278013 160.71927609 -163.02544945 161.93490589 -161.02978516 163.16235352 C-159.09208463 164.35147271 -157.1439981 165.5217143 -155.19335938 166.68945312 C-154.30408752 167.24556526 -154.30408752 167.24556526 -153.39685059 167.81291199 C-150.77765381 169.36363528 -148.99909813 170.26029458 -145.92260742 170.12670898 C-143.32937158 169.16303696 -141.08949529 168.02618498 -138.71289062 166.60742188 C-137.78041504 166.05642822 -136.84793945 165.50543457 -135.88720703 164.93774414 C-134.8847998 164.33631592 -133.88239258 163.7348877 -132.84960938 163.11523438 C-130.67684956 161.82937279 -128.5036578 160.54424085 -126.33007812 159.25976562 C-125.20778809 158.59412598 -124.08549805 157.92848633 -122.92919922 157.24267578 C-117.53016714 154.05548267 -112.09654988 150.92904288 -106.66210938 147.80273438 C-104.48889796 146.55018978 -102.31572111 145.2975852 -100.14257812 144.04492188 C-96.80633829 142.12304929 -93.4698947 140.20153122 -90.13330078 138.28027344 C-86.74672265 136.33002987 -83.36061354 134.37897426 -79.97460938 132.42773438 C-78.89646973 131.80705078 -77.81833008 131.18636719 -76.70751953 130.546875 C-71.8549979 127.74926678 -67.01157267 124.93912585 -62.19726562 122.07617188 C-61.40070557 121.60284424 -60.60414551 121.1295166 -59.78344727 120.6418457 C-58.33096998 119.77597918 -56.8807682 118.90627902 -55.43334961 118.03198242 C-50.7551388 115.24023438 -50.7551388 115.24023438 -48.53710938 115.24023438 C-48.53710938 97.09023438 -48.53710938 78.94023437 -48.53710938 60.24023438 C-60.74710938 60.24023438 -72.95710938 60.24023438 -85.53710938 60.24023438 C-84.06613162 57.29827886 -82.84135653 55.16141876 -80.88476562 52.62304688 C-80.36084229 51.94032715 -79.83691895 51.25760742 -79.29711914 50.55419922 C-78.73694092 49.83184082 -78.1767627 49.10948242 -77.59960938 48.36523438 C-76.73323853 47.24109131 -76.73323853 47.24109131 -75.84936523 46.09423828 C-74.08302765 43.80611077 -72.31106548 41.52245881 -70.53710938 39.24023438 C-70.01246094 38.56412109 -69.4878125 37.88800781 -68.94726562 37.19140625 C-67.50114907 35.33023546 -66.05153359 33.47187704 -64.59960938 31.61523438 C-63.96454468 30.80143311 -63.96454468 30.80143311 -63.31665039 29.97119141 C-62.5156498 28.95253615 -61.70339144 27.94258259 -60.87759399 26.94392395 C-59.50841611 25.26553601 -59.50841611 25.26553601 -58.39753723 23.42555237 C-56.27931874 20.36086391 -54.6935926 18.51897688 -50.99214172 17.62683105 C-47.83122646 17.42990065 -44.74158703 17.45328184 -41.57617188 17.55664062 C-40.43046722 17.56654526 -39.28476257 17.57644989 -38.1043396 17.58665466 C-34.45561125 17.62574763 -30.80992382 17.71356985 -27.16210938 17.80273438 C-24.68428833 17.83785437 -22.20641998 17.86979215 -19.72851562 17.8984375 C-13.66260825 17.96953822 -7.60324944 18.1065161 -1.53710938 18.24023438 C-1.53710938 31.77023438 -1.53710938 45.30023438 -1.53710938 59.24023438 C16.37490025 46.05814474 16.37490025 46.05814474 27.46289062 27.24023438 C28.08975409 22.57520394 28.16209356 18.58037334 25.96289062 14.36523438 C14.18521987 4.35421423 -3.27168983 4.16702957 -17.97460938 3.67773438 C-19.18310547 3.63455078 -20.39160156 3.59136719 -21.63671875 3.546875 C-24.60341544 3.44134034 -27.5701884 3.33922723 -30.53710938 3.24023438 C-30.53710938 2.58023438 -30.53710938 1.92023438 -30.53710938 1.24023438 C-20.35503153 0.50697471 -10.20956193 0.02870542 0 0 Z " fill="#10192E" transform="translate(403.537109375,209.759765625)"/>
<path d="M0 0 C0 44.22 0 88.44 0 134 C-0.66 134 -1.32 134 -2 134 C-3.19921875 132.77734375 -3.19921875 132.77734375 -4.6875 130.9375 C-8.46052997 126.4944182 -12.50757997 122.37041125 -16.625 118.25 C-17.59312622 117.2753479 -17.59312622 117.2753479 -18.58081055 116.28100586 C-21.91494155 112.9563212 -25.30327431 109.92299241 -29 107 C-30.67792003 105.3446632 -32.34332347 103.67659728 -34 102 C-34.74885971 101.24891968 -35.49771942 100.49783936 -36.26927185 99.72399902 C-37.03949173 98.95076294 -37.80971161 98.17752686 -38.60327148 97.38085938 C-42.96737735 93.00076833 -47.33367466 88.6228736 -51.70159817 84.24658966 C-54.33437787 81.60858576 -56.96620963 78.96965001 -59.59594727 76.32861328 C-62.15416101 73.75948511 -64.71485442 71.19285212 -67.27723885 68.62788391 C-68.24726148 67.65602604 -69.21640963 66.68329446 -70.18462944 65.7096405 C-74.9575274 60.91099985 -79.68707824 56.20063357 -85 52 C-83.52596014 47.57788041 -80.01414038 46.45787892 -76.125 44.3125 C-74.37407246 43.32325451 -72.62412784 42.3322679 -70.875 41.33984375 C-69.92625 40.80343262 -68.9775 40.26702148 -68 39.71435547 C-62.66896916 36.66792818 -57.40041412 33.5164265 -52.125 30.375 C-44.78923187 26.01290743 -37.44494827 21.66722288 -30.0703125 17.37109375 C-29.08655136 16.79733002 -29.08655136 16.79733002 -28.08291626 16.2119751 C-24.90930389 14.36110678 -21.73392055 12.51342638 -18.55517578 10.67138672 C-11.52027737 6.58477553 -11.52027737 6.58477553 -4.796875 2.01171875 C-2 0 -2 0 0 0 Z " fill="#F8FAFD" transform="translate(232,110)"/>
<path d="M0 0 C0.31017683 6.78511825 -0.86259034 13.25382784 -1.96875 19.93359375 C-2.1685144 21.16666763 -2.36827881 22.39974152 -2.57409668 23.67018127 C-3.10280503 26.92749086 -3.63625395 30.18397614 -4.17205811 33.44012451 C-4.71898818 36.77127779 -5.25960926 40.10345421 -5.80078125 43.43554688 C-6.86140837 49.95798424 -7.9282972 56.47937385 -9 63 C-14.5861856 61.24402431 -18.586216 58.67404578 -23.31640625 55.265625 C-25.89873668 53.72698355 -25.89873668 53.72698355 -28.5078125 54.47265625 C-31.59292493 56.36337562 -33.81574938 58.56789913 -36.3125 61.1875 C-39.41100664 64.39420846 -42.50352417 67.52293221 -45.9375 70.375 C-51.23748563 74.90702853 -55.79892614 80.15497103 -60.46972656 85.31689453 C-61.93517017 86.92869547 -63.41353144 88.52722701 -64.8984375 90.12109375 C-70.86871385 96.53968565 -76.51562287 103.15973883 -82 110 C-83.68534948 112.0933542 -85.37285762 114.18491771 -87.06298828 116.27441406 C-88.20566274 117.68721001 -89.3460661 119.10184669 -90.48388672 120.51855469 C-91.01127441 121.17114258 -91.53866211 121.82373047 -92.08203125 122.49609375 C-92.54843018 123.07544678 -93.0148291 123.6547998 -93.49536133 124.25170898 C-95.23427858 126.27221627 -97.10803974 128.12315616 -99 130 C-99.3269532 121.65443217 -99.57437124 113.31161182 -99.72537041 104.96118832 C-99.79791528 101.08174214 -99.89594244 97.20672808 -100.05615234 93.32983398 C-101.20358917 64.82987744 -101.20358917 64.82987744 -94.13980103 56.51148987 C-91.277235 53.70612797 -88.25354856 51.32770481 -85 49 C-83.5478931 47.70367904 -82.10515755 46.39640764 -80.6875 45.0625 C-80.09066406 44.5675 -79.49382812 44.0725 -78.87890625 43.5625 C-75.78232017 40.98737644 -72.84906289 38.22727551 -69.8828125 35.50390625 C-68 34 -68 34 -66 34 C-66 33.34 -66 32.68 -66 32 C-66.84820312 31.74476563 -67.69640625 31.48953125 -68.5703125 31.2265625 C-72.23752093 29.91505516 -75.46574557 28.25356877 -78.875 26.375 C-80.02742188 25.74335938 -81.17984375 25.11171875 -82.3671875 24.4609375 C-83.67042969 23.73777344 -83.67042969 23.73777344 -85 23 C-82.78451728 20.78451728 -81.92425599 20.57220622 -78.94921875 19.921875 C-78.11616211 19.73359131 -77.28310547 19.54530762 -76.42480469 19.35131836 C-75.52149414 19.1528833 -74.61818359 18.95444824 -73.6875 18.75 C-66.13580402 17.0285619 -58.68152937 15.11995527 -51.25 12.9375 C-44.22262308 10.88137288 -37.19069369 9.02954856 -30.05224609 7.40258789 C-21.69739074 5.49465221 -13.41843347 3.29740449 -5.1953125 0.8828125 C-2 0 -2 0 0 0 Z " fill="#1F2B45" transform="translate(395,123)"/>
<path d="M0 0 C0.66 0.33 1.32 0.66 2 1 C1.53851563 1.49886719 1.07703125 1.99773437 0.6015625 2.51171875 C-15.76005607 20.52243326 -30.76045562 40.7795682 -30.2734375 66.046875 C-29.66647457 74.82182472 -25.41391914 81.14849542 -19 87 C-2.16797196 100.14319072 21.18615545 103.55319117 42 104 C42.77988281 104.02578125 43.55976562 104.0515625 44.36328125 104.078125 C71.75273333 104.93005197 100.89827497 102.64963064 127.63720703 96.52905273 C130.14488088 95.96755974 132.65915995 95.45756976 135.1796875 94.95703125 C146.11187795 92.7707857 156.95530248 90.35375127 167.75 87.5625 C168.77593262 87.29864502 169.80186523 87.03479004 170.85888672 86.76293945 C187.48184151 82.39360319 203.79531238 77.17839599 220.00146484 71.46826172 C222.76101758 70.4961187 225.5228674 69.53074407 228.28515625 68.56640625 C237.3066446 65.40814254 246.30275971 62.20239962 255.21722412 58.75158691 C259.78969658 57 259.78969658 57 262 57 C262 57.66 262 58.32 262 59 C253.796875 62.41796875 253.796875 62.41796875 252.05761719 63.140625 C250.50951875 63.78719673 248.96366897 64.43915655 247.41894531 65.09375 C239.43234408 68.46046715 231.36089778 71.57217433 223.25 74.625 C221.97519106 75.10658727 220.70045121 75.58835747 219.42578125 76.0703125 C215.95146887 77.3827495 212.47627004 78.69275774 209 80 C208.04393608 80.36416519 208.04393608 80.36416519 207.06855774 80.73568726 C202.56415686 82.44376747 198.02975134 84.03058757 193.44921875 85.5234375 C192.75755112 85.74985931 192.06588348 85.97628113 191.35325623 86.20956421 C189.13236786 86.93459291 186.91022452 87.65562092 184.6875 88.375 C183.92379089 88.62221802 183.16008179 88.86943604 182.37322998 89.12414551 C171.81607463 92.53242855 161.27109743 95.7700902 150.48486328 98.38134766 C147.61352504 99.09622004 144.75913999 99.86580937 141.90234375 100.63671875 C128.5601778 104.18218942 115.23776657 107.00786113 101.625 109.25 C100.90579376 109.36874481 100.18658752 109.48748962 99.44558716 109.60983276 C95.0930867 110.3218495 90.73576256 110.99397717 86.3732605 111.64175415 C84.7352039 111.8890203 83.09830573 112.14404162 81.46243286 112.40536499 C68.12275055 114.5354272 55.12823777 115.4523427 41.62084961 115.33618164 C38.67078609 115.31236506 35.7216215 115.31568648 32.77148438 115.32226562 C18.3954877 115.30189751 3.78058955 114.91524117 -10.125 110.875 C-10.86016846 110.66472168 -11.59533691 110.45444336 -12.3527832 110.23779297 C-23.87909051 106.72692765 -36.16944183 101.19923689 -42.484375 90.48046875 C-47.22668628 81.38215807 -48.59395156 72.77235029 -46.19921875 62.59765625 C-41.11841212 47.35523635 -32.69767678 34.81681835 -22 23 C-20.91545902 21.70934716 -19.83196677 20.41781158 -18.75 19.125 C-16.31339074 16.40417109 -13.81663279 13.76628924 -11.23828125 11.1796875 C-10.55475586 10.49374512 -9.87123047 9.80780273 -9.16699219 9.10107422 C-6.1197823 6.0588134 -3.06387893 3.02546965 0 0 Z " fill="#0863E0" transform="translate(80,248)"/>
<path d="M0 0 C2.09479171 -0.0097979 4.18863503 -0.0410471 6.28320312 -0.07226562 C20.79004162 -0.1865996 32.96027906 1.56714589 44.02539062 11.55273438 C46.67991881 16.51554794 46.24420656 20.65929975 44.63867188 25.96289062 C34.58868148 49.51854635 6.89111056 63.15473405 -14.53710938 74.24023438 C-15.46539551 74.73281738 -16.39368164 75.22540039 -17.35009766 75.73291016 C-18.24841309 76.20067871 -19.14672852 76.66844727 -20.07226562 77.15039062 C-20.88187744 77.57586182 -21.69148926 78.00133301 -22.52563477 78.43969727 C-23.18942139 78.70387451 -23.85320801 78.96805176 -24.53710938 79.24023438 C-25.19710938 78.91023438 -25.85710937 78.58023438 -26.53710938 78.24023438 C-26.0535498 77.90290283 -25.56999023 77.56557129 -25.07177734 77.21801758 C-22.84993267 75.6657008 -20.6310132 74.10925161 -18.41210938 72.55273438 C-17.6515625 72.02228516 -16.89101563 71.49183594 -16.10742188 70.9453125 C-15.35976563 70.42001953 -14.61210937 69.89472656 -13.84179688 69.35351562 C-13.16101074 68.87696533 -12.48022461 68.40041504 -11.77880859 67.90942383 C-11.03904785 67.35859131 -10.29928711 66.80775879 -9.53710938 66.24023438 C-7.94382812 65.20576172 -7.94382812 65.20576172 -6.31835938 64.15039062 C-3.65998772 61.89545001 -3.07834628 60.26883038 -2.76416016 56.81713867 C-2.72394241 55.06667348 -2.71433492 53.31528685 -2.73242188 51.56445312 C-2.71880615 50.74384399 -2.70519043 49.92323486 -2.69116211 49.07775879 C-2.64919393 46.02802403 -2.65867608 42.97775596 -2.66210938 39.92773438 C-2.62085938 33.10085937 -2.57960938 26.27398437 -2.53710938 19.24023438 C-19.36710937 19.24023438 -36.19710938 19.24023438 -53.53710938 19.24023438 C-53.53710938 18.91023438 -53.53710938 18.58023438 -53.53710938 18.24023438 C-36.37710937 18.24023438 -19.21710938 18.24023438 -1.53710938 18.24023438 C-1.53710938 31.77023438 -1.53710938 45.30023438 -1.53710938 59.24023438 C16.37490025 46.05814474 16.37490025 46.05814474 27.46289062 27.24023438 C28.08975409 22.57520394 28.16209356 18.58037334 25.96289062 14.36523438 C14.18521987 4.35421423 -3.27168983 4.16702957 -17.97460938 3.67773438 C-19.18310547 3.63455078 -20.39160156 3.59136719 -21.63671875 3.546875 C-24.60341544 3.44134034 -27.5701884 3.33922723 -30.53710938 3.24023438 C-30.53710938 2.58023438 -30.53710938 1.92023438 -30.53710938 1.24023438 C-20.35503153 0.50697471 -10.20956193 0.02870542 0 0 Z " fill="#1676EF" transform="translate(403.537109375,209.759765625)"/>
<path d="M0 0 C0 0.66 0 1.32 0 2 C-8.203125 5.41796875 -8.203125 5.41796875 -9.94238281 6.140625 C-11.49048125 6.78719673 -13.03633103 7.43915655 -14.58105469 8.09375 C-22.56765592 11.46046715 -30.63910222 14.57217433 -38.75 17.625 C-40.02480894 18.10658727 -41.29954879 18.58835747 -42.57421875 19.0703125 C-46.04853113 20.3827495 -49.52372996 21.69275774 -53 23 C-53.63574448 23.24236893 -54.27148895 23.48473785 -54.92649841 23.73445129 C-59.47936698 25.46203494 -64.05966441 27.05619849 -68.69140625 28.55859375 C-69.39917709 28.78901871 -70.10694794 29.01944366 -70.83616638 29.2568512 C-72.32576325 29.74097709 -73.81568175 30.22411441 -75.3059082 30.70629883 C-77.53409283 31.42829525 -79.76022801 32.15637167 -81.98632812 32.88476562 C-89.06639188 35.1889098 -96.16658247 37.41264342 -103.33984375 39.41015625 C-104.52827881 39.74281494 -105.71671387 40.07547363 -106.94116211 40.41821289 C-109.81879584 40.9655352 -111.30300747 41.02067468 -114 40 C-113.34 40 -112.68 40 -112 40 C-112 39.34 -112 38.68 -112 38 C-111.34 38 -110.68 38 -110 38 C-110.495 36.515 -110.495 36.515 -111 35 C-110.33806641 34.82460693 -109.67613281 34.64921387 -108.99414062 34.46850586 C-102.15636813 32.65259019 -95.32551318 30.81231618 -88.49951172 28.95263672 C-86.36925006 28.37273711 -84.23825211 27.79552204 -82.10595703 27.22314453 C-67.5096325 23.28318007 -53.26623079 18.42127785 -39 13.4375 C-38.08002228 13.11612061 -37.16004456 12.79474121 -36.21218872 12.46362305 C-26.36056597 9.0141867 -16.53100631 5.52144139 -6.79541016 1.75474548 C-2.21136159 0 -2.21136159 0 0 0 Z " fill="#1166DB" transform="translate(342,305)"/>
<path d="M0 0 C6.6 0 13.2 0 20 0 C20 6.93 20 13.86 20 21 C13.4 21 6.8 21 0 21 C0 14.07 0 7.14 0 0 Z " fill="#0D6EED" transform="translate(411,142)"/>
<path d="M0 0 C6.6 0 13.2 0 20 0 C20 6.93 20 13.86 20 21 C13.4 21 6.8 21 0 21 C0 14.07 0 7.14 0 0 Z " fill="#046CF9" transform="translate(437,115)"/>
<path d="M0 0 C6.27 0 12.54 0 19 0 C19 6.27 19 12.54 19 19 C12.73 19 6.46 19 0 19 C0 12.73 0 6.46 0 0 Z " fill="#035BD7" transform="translate(404,93)"/>
<path d="M0 0 C4.95 0 9.9 0 15 0 C15 4.95 15 9.9 15 15 C10.05 15 5.1 15 0 15 C0 10.05 0 5.1 0 0 Z " fill="#1C60C4" transform="translate(436,72)"/>
<path d="M0 0 C0 0.66 0 1.32 0 2 C-8.203125 5.41796875 -8.203125 5.41796875 -9.94238281 6.140625 C-11.49048125 6.78719673 -13.03633103 7.43915655 -14.58105469 8.09375 C-22.56765592 11.46046715 -30.63910222 14.57217433 -38.75 17.625 C-40.02480894 18.10658727 -41.29954879 18.58835747 -42.57421875 19.0703125 C-44.99022561 19.98296987 -47.40747539 20.89234621 -49.82617188 21.79785156 C-51.74640112 22.52517532 -53.66112323 23.26762147 -55.56445312 24.03808594 C-60.69452204 26.10182599 -60.69452204 26.10182599 -64 25 C-64 24.01 -64 23.02 -64 22 C-63.18885742 21.71931168 -63.18885742 21.71931168 -62.36132812 21.43295288 C-56.64855957 19.45564601 -50.93680406 17.47543285 -45.22558594 15.49365234 C-43.10409105 14.75790533 -40.9823529 14.02285929 -38.86035156 13.28857422 C-22.67942728 7.69711307 -22.67942728 7.69711307 -6.64306641 1.7071228 C-2.20465297 0 -2.20465297 0 0 0 Z " fill="#2374E3" transform="translate(342,305)"/>
<path d="M0 0 C0.66 0.33 1.32 0.66 2 1 C1.53851563 1.49886719 1.07703125 1.99773437 0.6015625 2.51171875 C-9.71382873 13.86680356 -17.81328644 25.47717424 -25 39 C-25.66 38.67 -26.32 38.34 -27 38 C-27 36.68 -27 35.36 -27 34 C-27.66 33.67 -28.32 33.34 -29 33 C-23.07236668 20.01848304 -10.00466804 9.79431597 0 0 Z " fill="#1271F4" transform="translate(80,248)"/>
<path d="M0 0 C0.66 0 1.32 0 2 0 C2.01030746 0.73249466 2.02061493 1.46498932 2.03123474 2.21968079 C2.12918764 9.12069508 2.23169903 16.0216282 2.33933926 22.92249775 C2.39451792 26.47035451 2.44792977 30.01821959 2.49731445 33.56616211 C2.55415852 37.64445958 2.61866801 41.72260438 2.68359375 45.80078125 C2.70866249 47.71338493 2.70866249 47.71338493 2.73423767 49.66462708 C2.75418289 50.84562485 2.77412811 52.02662262 2.79467773 53.2434082 C2.81799416 54.80560844 2.81799416 54.80560844 2.84178162 56.39936829 C2.89468675 59.11411733 2.89468675 59.11411733 4 62 C2.68 63.32 1.36 64.64 0 66 C0 44.22 0 22.44 0 0 Z " fill="#374158" transform="translate(296,187)"/>
<path d="M0 0 C0 0.66 0 1.32 0 2 C4.455 2.99 4.455 2.99 9 4 C5.38923463 4.90269134 3.76962192 4.87709598 0.26123047 4.29345703 C-4.93389459 3.61924624 -10.20636113 3.61158591 -15.4375 3.4375 C-16.64599609 3.39431641 -17.85449219 3.35113281 -19.09960938 3.30664062 C-22.06630606 3.20110596 -25.03307902 3.09899286 -28 3 C-28 2.34 -28 1.68 -28 1 C-18.65190221 0.33566818 -9.37877608 -0.1598655 0 0 Z " fill="#4690F5" transform="translate(401,210)"/>
<path d="M0 0 C1.32 0.33 2.64 0.66 4 1 C4.36923077 7.52307692 4.36923077 7.52307692 2.5 9.9375 C2.005 10.288125 1.51 10.63875 1 11 C0.01 10.67 -0.98 10.34 -2 10 C-5.1668838 11.37492804 -5.1668838 11.37492804 -8 13 C-6.40956621 7.91061189 -3.2553049 4.12543357 0 0 Z " fill="#0C69EE" transform="translate(50,281)"/>
<path d="M0 0 C0.66 0.99 1.32 1.98 2 3 C3.65 2.67 5.3 2.34 7 2 C2.43102209 6.09004941 -2.73957409 8.60992433 -8.1875 11.3125 C-9.55938477 12.01342773 -9.55938477 12.01342773 -10.95898438 12.72851562 C-11.83232422 13.16486328 -12.70566406 13.60121094 -13.60546875 14.05078125 C-14.79885864 14.64886597 -14.79885864 14.64886597 -16.01635742 15.2590332 C-16.67095947 15.50355225 -17.32556152 15.74807129 -18 16 C-18.66 15.67 -19.32 15.34 -20 15 C-19.50072998 14.65219482 -19.00145996 14.30438965 -18.48706055 13.94604492 C-16.21834593 12.36298159 -13.95290379 10.77529716 -11.6875 9.1875 C-10.50897461 8.36668945 -10.50897461 8.36668945 -9.30664062 7.52929688 C-8.54931641 6.99755859 -7.79199219 6.46582031 -7.01171875 5.91796875 C-6.31522217 5.43094482 -5.61872559 4.9439209 -4.90112305 4.44213867 C-3.10086029 3.07650979 -1.55263976 1.63759953 0 0 Z " fill="#085BCA" transform="translate(397,273)"/>
<path d="M0 0 C2.37102812 4.11954693 2.09904298 7.47194292 1 12 C0.01642648 14.00812926 -0.98308736 16.00854609 -2 18 C-2.7136724 21.73771834 -2.7136724 21.73771834 -3 25 C-3.33 25 -3.66 25 -4 25 C-4.53344824 15.81283582 -3.44660395 8.53957675 0 0 Z " fill="#2178F0" transform="translate(37,302)"/>
<path d="M0 0 C0 0.66 0 1.32 0 2 C-7.30851156 5.06404952 -14.63184879 8.08208171 -22 11 C-22 10.34 -22 9.68 -22 9 C-22.66 8.67 -23.32 8.34 -24 8 C-20.37689672 6.66147204 -16.75121856 5.33006282 -13.125 4 C-12.09246094 3.6184375 -11.05992187 3.236875 -9.99609375 2.84375 C-9.00996094 2.4828125 -8.02382813 2.121875 -7.0078125 1.75 C-6.09660645 1.41484375 -5.18540039 1.0796875 -4.24658203 0.734375 C-2 0 -2 0 0 0 Z " fill="#498BF0" transform="translate(342,305)"/>
<path d="M0 0 C3.79165074 -0.0289337 7.58327327 -0.04677601 11.375 -0.0625 C12.45523438 -0.07087891 13.53546875 -0.07925781 14.6484375 -0.08789062 C16.1953125 -0.09272461 16.1953125 -0.09272461 17.7734375 -0.09765625 C18.72653809 -0.10289307 19.67963867 -0.10812988 20.66162109 -0.11352539 C23 0 23 0 25 1 C26.5195764 1.15123831 28.04472502 1.24881693 29.5703125 1.31640625 C30.91416016 1.37924805 30.91416016 1.37924805 32.28515625 1.44335938 C33.22230469 1.48267578 34.15945312 1.52199219 35.125 1.5625 C36.54232422 1.62727539 36.54232422 1.62727539 37.98828125 1.69335938 C40.32537092 1.79959072 42.6625683 1.90163176 45 2 C45 2.33 45 2.66 45 3 C12.57164601 3.27705613 12.57164601 3.27705613 0 1 C0 0.67 0 0.34 0 0 Z " fill="#B3CFF1" transform="translate(100,350)"/>
<path d="M0 0 C-0.33 0.99 -0.66 1.98 -1 3 C-4.75907641 4.62323754 -7.92086213 5.23994929 -12 5 C-12.33 4.01 -12.66 3.02 -13 2 C-11.5882217 1.46605821 -10.17029756 0.94834896 -8.75 0.4375 C-7.96109375 0.14746094 -7.1721875 -0.14257812 -6.359375 -0.44140625 C-3.80896548 -1.04522837 -2.44677771 -0.8473932 0 0 Z " fill="#0F63DB" transform="translate(279,329)"/>
<path d="M0 0 C2.77982621 1.3899131 2.87463341 3.18658353 4 6 C4.66 6.33 5.32 6.66 6 7 C2.04 7 -1.92 7 -6 7 C-5 3 -5 3 -2.5625 1.1875 C-1.716875 0.795625 -0.87125 0.40375 0 0 Z " fill="#035ACD" transform="translate(418,155)"/>
<path d="M0 0 C-0.7109375 1.921875 -0.7109375 1.921875 -2 4 C-4.1640625 4.828125 -4.1640625 4.828125 -6.625 5.25 C-7.85089844 5.47429687 -7.85089844 5.47429687 -9.1015625 5.703125 C-9.72804688 5.80109375 -10.35453125 5.8990625 -11 6 C-11.33 4.68 -11.66 3.36 -12 2 C-7.8794254 0.00214565 -4.54805635 -0.17835515 0 0 Z " fill="#1D70E1" transform="translate(290,325)"/>
<path d="M0 0 C0.66 0.33 1.32 0.66 2 1 C0.75160427 2.41808059 -0.49879221 3.83439995 -1.75 5.25 C-2.44609375 6.03890625 -3.1421875 6.8278125 -3.859375 7.640625 C-4.56578125 8.41921875 -5.2721875 9.1978125 -6 10 C-6.66515625 10.73734375 -7.3303125 11.4746875 -8.015625 12.234375 C-10.07468777 14.06645447 -11.30757474 14.61536782 -14 15 C-9.59156563 9.70987876 -4.92440206 4.81191572 0 0 Z " fill="#3283F2" transform="translate(80,248)"/>
<path d="M0 0 C0 3.93169105 -1.39419615 5.16427228 -4 8 C-4.66 8 -5.32 8 -6 8 C-7.33783393 8.31478446 -8.67203709 8.64587656 -10 9 C-9.0919838 7.86800647 -8.17316174 6.74467637 -7.25 5.625 C-6.73953125 4.99851562 -6.2290625 4.37203125 -5.703125 3.7265625 C-3.91800519 1.91687682 -2.32050356 0.99882545 0 0 Z " fill="#1A76F1" transform="translate(69,261)"/>
<path d="M0 0 C0.33 0.99 0.66 1.98 1 3 C-2.3 6.3 -5.6 9.6 -9 13 C-9.66 12.67 -10.32 12.34 -11 12 C-7.37 8.04 -3.74 4.08 0 0 Z " fill="#36425A" transform="translate(308,174)"/>
<path d="M0 0 C1.6875 2 1.6875 2 3 4 C0.36 4.66 -2.28 5.32 -5 6 C-5 4.35 -5 2.7 -5 1 C-3 0 -3 0 0 0 Z " fill="#1B72E0" transform="translate(266,331)"/>
<path d="M0 0 C-0.33 1.98 -0.66 3.96 -1 6 C-2.32 6.33 -3.64 6.66 -5 7 C-5.33 5.02 -5.66 3.04 -6 1 C-3 0 -3 0 0 0 Z " fill="#1E70E0" transform="translate(244,337)"/>
<path d="M0 0 C0.33 0.66 0.66 1.32 1 2 C0.00390625 4.1640625 0.00390625 4.1640625 -1.4375 6.625 C-1.91058594 7.44226563 -2.38367188 8.25953125 -2.87109375 9.1015625 C-3.24363281 9.72804688 -3.61617188 10.35453125 -4 11 C-4.99 11 -5.98 11 -7 11 C-5.22054913 6.95579349 -2.60470327 3.53921513 0 0 Z " fill="#232D44" transform="translate(326,258)"/>
<path d="M0 0 C1.65 0 3.3 0 5 0 C3.125 4.75 3.125 4.75 2 7 C1.34 7 0.68 7 0 7 C-0.33 6.01 -0.66 5.02 -1 4 C-0.34 4 0.32 4 1 4 C0.67 2.68 0.34 1.36 0 0 Z " fill="#0A69F2" transform="translate(56,274)"/>
<path d="M0 0 C0 0.66 0 1.32 0 2 C-2.35438733 3.42944945 -3.48032433 4.08661261 -6.25 3.625 C-6.8275 3.41875 -7.405 3.2125 -8 3 C-8 2.34 -8 1.68 -8 1 C-5.07175348 0.02391783 -3.04386724 -0.08226668 0 0 Z " fill="#176ADE" transform="translate(312,317)"/>
<path d="M0 0 C-3.96 1.98 -3.96 1.98 -8 4 C-8 3.34 -8 2.68 -8 2 C-8.66 1.67 -9.32 1.34 -10 1 C-5.8922935 -0.58706842 -4.40767604 -1.10191901 0 0 Z " fill="#397FEB" transform="translate(328,312)"/>
<path d="M0 0 C0 3 0 3 -2.5 5.6875 C-3.325 6.450625 -4.15 7.21375 -5 8 C-5.99 7.67 -6.98 7.34 -8 7 C-5.36 4.69 -2.72 2.38 0 0 Z " fill="#2E3A52" transform="translate(325,159)"/>
<path d="M0 0 C2.64 0 5.28 0 8 0 C8 0.33 8 0.66 8 1 C6.35 1.33 4.7 1.66 3 2 C2.67 3.65 2.34 5.3 2 7 C1.34 6.67 0.68 6.34 0 6 C0 4.02 0 2.04 0 0 Z " fill="#0364F4" transform="translate(411,143)"/>
<path d="M0 0 C0 0.66 0 1.32 0 2 C0.99 2.33 1.98 2.66 3 3 C-1.455 3.495 -1.455 3.495 -6 4 C-2.25 0 -2.25 0 0 0 Z " fill="#0E5DCC" transform="translate(165,356)"/>
</svg>
