<?xml version="1.0" encoding="UTF-8"?>
<svg version="1.1" xmlns="http://www.w3.org/2000/svg" width="974" height="350">
<path d="M0 0 C321.42 0 642.84 0 974 0 C974 115.5 974 231 974 350 C652.58 350 331.16 350 0 350 C0 234.5 0 119 0 0 Z " fill="#FCFCFD" transform="translate(0,0)"/>
<path d="M0 0 C1.64480194 0.00560578 3.28960895 0.00987123 4.93441772 0.01286316 C9.23181355 0.02423471 13.52889785 0.05363418 17.82617188 0.0869751 C22.22391549 0.11784325 26.62171018 0.13140403 31.01953125 0.14648438 C39.62515783 0.17851257 48.23047284 0.23121613 56.8359375 0.29296875 C56.8359375 7.22296875 56.8359375 14.15296875 56.8359375 21.29296875 C54.69673828 21.30755127 52.55753906 21.32213379 50.35351562 21.3371582 C43.26471102 21.38762347 36.17612333 21.45423927 29.08753204 21.52868366 C24.79209795 21.57330296 20.49675686 21.61257737 16.20117188 21.6394043 C12.05127353 21.66552192 7.9017347 21.70598325 3.75205994 21.75615501 C2.17338045 21.77276678 0.59463885 21.78431636 -0.9841156 21.79058266 C-12.68795918 21.84171352 -22.37571174 22.66249255 -31.1640625 31.29296875 C-39.96185864 42.2858928 -41.31896418 53.49048527 -40.1640625 67.29296875 C-38.11701366 77.1272446 -34.82950932 84.6495815 -27.1640625 91.29296875 C-20.87080908 95.3623767 -15.63714102 97.36193115 -8.09838867 97.49829102 C-7.11774948 97.51823624 -6.13711029 97.53818146 -5.12675476 97.55873108 C-4.080746 97.57544357 -3.03473724 97.59215607 -1.95703125 97.609375 C-0.33623405 97.64054665 -0.33623405 97.64054665 1.31730652 97.67234802 C4.76095361 97.73760911 8.20467545 97.7966195 11.6484375 97.85546875 C13.98633578 97.89867626 16.32422657 97.94229126 18.66210938 97.98632812 C24.38664333 98.09403146 30.11123593 98.19327962 35.8359375 98.29296875 C35.8359375 89.38296875 35.8359375 80.47296875 35.8359375 71.29296875 C22.6359375 71.29296875 9.4359375 71.29296875 -4.1640625 71.29296875 C-4.1640625 64.69296875 -4.1640625 58.09296875 -4.1640625 51.29296875 C15.9659375 51.29296875 36.0959375 51.29296875 56.8359375 51.29296875 C56.8359375 73.40296875 56.8359375 95.51296875 56.8359375 118.29296875 C38.35023293 118.45340399 38.35023293 118.45340399 30.40625 118.48828125 C25.00797591 118.51209506 19.60997592 118.5401162 14.21191406 118.59472656 C9.85467801 118.63852607 5.49773633 118.662177 1.14029694 118.67247772 C-0.51331967 118.67980843 -2.1669221 118.69412178 -3.82041168 118.71588898 C-19.7251341 118.91673648 -32.76967684 115.91241955 -44.86328125 104.81640625 C-50.84205091 98.6142147 -54.82226715 92.20483523 -58.1640625 84.29296875 C-58.49148438 83.52597656 -58.81890625 82.75898437 -59.15625 81.96875 C-65.05181826 67.22982935 -63.60166777 48.33008954 -57.79296875 33.8828125 C-50.94993666 18.80188565 -40.56687618 8.8471873 -25.22331238 2.4887085 C-16.94838959 -0.42088633 -8.64105675 -0.0871256 0 0 Z " fill="#0669EA" transform="translate(503.1640625,43.70703125)"/>
<path d="M0 0 C6.93 0 13.86 0 21 0 C21 38.94 21 77.88 21 118 C-1 118 -1 118 -6.125 113.375 C-7.43467141 111.26104906 -8.72498167 109.13503069 -10 107 C-11.91254185 104.58841498 -13.95538447 102.29983712 -16 100 C-17.03260197 98.80567494 -18.06258931 97.60908389 -19.08984375 96.41015625 C-19.58468262 95.83281738 -20.07952148 95.25547852 -20.58935547 94.66064453 C-23.35200206 91.40839079 -26.03282672 88.08977397 -28.72265625 84.77734375 C-31.28204054 81.65603633 -33.88593791 78.5754997 -36.5 75.5 C-40.61871109 70.65324469 -44.66600931 65.75469106 -48.6796875 60.8203125 C-51.71876084 57.12635467 -54.81519603 53.48238011 -57.93164062 49.85351562 C-61.78439601 45.33829551 -65.34150149 40.7037838 -69 36 C-69.33 63.06 -69.66 90.12 -70 118 C-76.93 118 -83.86 118 -91 118 C-91 79.39 -91 40.78 -91 1 C-70 1 -70 1 -65.875 4.125 C-64.88327652 5.72984028 -63.92947803 7.35832452 -63 9 C-61.29467726 11.23322654 -59.56988262 13.43402867 -57.8125 15.625 C-56.86300775 16.84223462 -55.91379357 18.0596862 -54.96484375 19.27734375 C-51.54696975 23.61074 -47.95443833 27.78491019 -44.34326172 31.95727539 C-40.57111815 36.31808898 -36.90585908 40.75549234 -33.26953125 45.23046875 C-30.7507126 48.30420786 -28.19471048 51.34380521 -25.625 54.375 C-25.16561035 54.91688965 -24.7062207 55.4587793 -24.23291016 56.01708984 C-22.3463659 58.24030565 -20.45804404 60.46199736 -18.56787109 62.68212891 C-17.61223436 63.80470048 -16.65715779 64.92774916 -15.70263672 66.05126953 C-14.40319315 67.58075159 -13.10205059 69.10878974 -11.80078125 70.63671875 C-8.13565944 75.03793197 -4.57791577 79.52760529 -1 84 C-0.67 56.28 -0.34 28.56 0 0 Z " fill="#041131" transform="translate(127,44)"/>
<path d="M0 0 C0.8773732 -0.00287018 1.7547464 -0.00574036 2.65870667 -0.00869751 C4.50335338 -0.01072735 6.34802214 -0.00527356 8.19262695 0.00732422 C10.99284759 0.02337412 13.79162088 0.00744876 16.59179688 -0.01171875 C18.39453439 -0.00973575 20.19727102 -0.0058909 22 0 C22.82527695 -0.00607269 23.65055389 -0.01214539 24.50083923 -0.0184021 C34.36088638 0.09897867 41.28759586 3.04099795 48.390625 9.87890625 C53.62759425 15.94326023 55.34837492 22.72629262 55.01171875 30.66015625 C53.86745282 37.69638796 50.34102488 43.85369584 44.59092712 48.11451721 C37.90396237 52.35528836 30.63167689 52.87474922 22.90625 52.90234375 C21.42228477 52.91732155 21.42228477 52.91732155 19.90834045 52.93260193 C17.8301305 52.94769952 15.75184872 52.95483034 13.67358398 52.9543457 C10.50838429 52.96092819 7.34628977 53.01555676 4.18164062 53.07226562 C2.15235437 53.08106576 0.12305337 53.08702127 -1.90625 53.08984375 C-3.31125511 53.12217857 -3.31125511 53.12217857 -4.74464417 53.15516663 C-11.63039094 53.08386112 -15.42326474 51.07578986 -20.43359375 46.3984375 C-19.12172865 53.76942054 -17.49390198 59.46314819 -11.11328125 64.02612305 C-5.44353495 67.45687297 0.35542895 67.12654584 6.81640625 67.10546875 C8.07026123 67.12059006 9.32411621 67.13571136 10.6159668 67.15129089 C13.92378221 67.18683233 17.2307825 67.20131588 20.53875732 67.20532227 C23.92444324 67.21469836 27.30981133 67.25213929 30.6953125 67.28710938 C37.31907731 67.34989008 43.94237026 67.38228286 50.56640625 67.3984375 C50.56640625 73.6684375 50.56640625 79.9384375 50.56640625 86.3984375 C42.93342434 86.48928553 35.30064781 86.5624662 27.66725445 86.60568619 C24.12163174 86.62644369 20.57640231 86.65453981 17.03100586 86.70019531 C12.94251009 86.75250705 8.8544188 86.77148026 4.765625 86.7890625 C3.50997238 86.80970764 2.25431976 86.83035278 0.96061707 86.85162354 C-11.1349826 86.85466779 -20.60824834 83.86180585 -29.43359375 75.3984375 C-31.70054911 72.87341356 -33.62075933 70.26460079 -35.43359375 67.3984375 C-35.82417969 66.78355469 -36.21476563 66.16867188 -36.6171875 65.53515625 C-42.33921852 55.4115629 -42.72345297 42.24325878 -40.25390625 31.078125 C-36.66033663 19.33913092 -30.68709582 10.92359713 -20.19140625 4.7578125 C-13.202327 1.31277061 -7.72653853 -0.05671562 0 0 Z " fill="#056AED" transform="translate(615.43359375,75.6015625)"/>
<path d="M0 0 C0.88207626 -0.00807175 1.76415253 -0.01614349 2.67295837 -0.02445984 C4.54326417 -0.03829332 6.41359513 -0.04901877 8.28393555 -0.05688477 C10.18375113 -0.06836548 12.08353546 -0.08875482 13.9831543 -0.1184082 C27.53556011 -0.32992452 38.12037152 -0.25660384 48.46484375 9.50390625 C54.67431353 16.13132111 54.60831969 23.6793122 54.43359375 32.3046875 C53.8299482 39.21231327 51.01476271 42.31336229 46.27734375 47.05078125 C39.0798965 51.99020584 32.70408946 52.69757365 24.203125 52.671875 C22.67307076 52.67973778 22.67307076 52.67973778 21.11210632 52.6877594 C18.96822008 52.69415165 16.82429863 52.69287909 14.68041992 52.68432617 C11.40155015 52.67577918 8.12440283 52.70467713 4.84570312 52.73632812 C2.75651094 52.73793944 0.66731567 52.73736395 -1.421875 52.734375 C-2.88762215 52.75122597 -2.88762215 52.75122597 -4.38298035 52.76841736 C-9.93003457 52.71153279 -12.81948457 52.32796995 -16.91015625 48.23828125 C-18.39515625 47.74328125 -18.39515625 47.74328125 -19.91015625 47.23828125 C-19.28821731 48.98937147 -18.66247627 50.73911156 -18.03515625 52.48828125 C-17.68710938 53.4628125 -17.3390625 54.43734375 -16.98046875 55.44140625 C-15.41247277 60.07527868 -15.41247277 60.07527868 -12.09765625 63.36328125 C-11.37578125 63.65203125 -10.65390625 63.94078125 -9.91015625 64.23828125 C-8.78441948 64.75048721 -8.78441948 64.75048721 -7.63594055 65.27304077 C-4.63324587 66.33633931 -2.28938999 66.51483246 0.88989258 66.55712891 C2.60110039 66.58693344 2.60110039 66.58693344 4.34687805 66.61734009 C5.56787704 66.6288913 6.78887604 66.6404425 8.046875 66.65234375 C9.30497482 66.6717099 10.56307465 66.69107605 11.85929871 66.71102905 C15.19158694 66.76061202 18.52376706 66.80191223 21.85620117 66.83917236 C25.26165614 66.87929749 28.66694565 66.93035085 32.07226562 66.98046875 C38.74468506 67.07645613 45.4171769 67.16152295 52.08984375 67.23828125 C52.35160553 72.24136844 50.7294861 74.64822714 47.65234375 78.42578125 C44.59554065 82.14987484 44.59554065 82.14987484 42.08984375 86.23828125 C35.17062093 86.34037754 28.25159506 86.41003687 21.33178711 86.45800781 C18.98177837 86.478023 16.63181879 86.50524369 14.28198242 86.54003906 C10.88838508 86.58900249 7.49545079 86.61135184 4.1015625 86.62890625 C3.06464767 86.64955139 2.02773285 86.67019653 0.95939636 86.69146729 C-10.43940243 86.69491042 -19.64483136 83.12861976 -27.91015625 75.23828125 C-37.7814923 64.8978124 -40.27413537 52.85989811 -40.0546875 38.95703125 C-39.59921809 27.23792631 -34.87458425 17.12009848 -26.265625 9.02734375 C-18.17215517 2.88006484 -10.02175873 0.0870972 0 0 Z " fill="#041131" transform="translate(200.91015625,75.76171875)"/>
<path d="M0 0 C9.075 -0.04125 18.15 -0.0825 27.5 -0.125 C30.35076172 -0.14320801 33.20152344 -0.16141602 36.13867188 -0.18017578 C38.41536267 -0.18602074 40.69205557 -0.19111629 42.96875 -0.1953125 C44.72106934 -0.2106604 44.72106934 -0.2106604 46.50878906 -0.22631836 C58.36331169 -0.2288406 66.44081029 2.4985953 76.1875 9.1875 C83.44944321 16.44944321 87.05716603 24.83848538 87.22705078 35.02709961 C87.22673624 37.40220453 87.21556258 39.77732514 87.1953125 42.15234375 C87.1924826 43.40761368 87.18965271 44.66288361 87.18673706 45.95619202 C87.17747127 49.27214347 87.15954299 52.58781301 87.1373291 55.90368652 C87.11676595 59.29579245 87.10771309 62.68792766 87.09765625 66.08007812 C87.07565121 72.7201392 87.04114964 79.36003109 87 86 C80.4 86 73.8 86 67 86 C66.99589111 84.40607422 66.99178223 82.81214844 66.98754883 81.16992188 C66.96571759 75.23567719 66.91138466 69.30209175 66.84741211 63.36816406 C66.82426722 60.80377538 66.80984469 58.23929212 66.80444336 55.67480469 C66.79512884 51.98052259 66.75407853 48.2877211 66.70703125 44.59375 C66.7109639 43.4538562 66.71489655 42.3139624 66.71894836 41.13952637 C66.58728185 33.89688908 65.8287358 29.53998129 61 24 C48.76463466 17.88414189 48.76463466 17.88414189 20 19 C20 41.11 20 63.22 20 86 C13.4 86 6.8 86 0 86 C0 57.62 0 29.24 0 0 Z " fill="#056EF2" transform="translate(685,76)"/>
<path d="M0 0 C0 10.23 0 20.46 0 31 C10.23 31 20.46 31 31 31 C31 37.27 31 43.54 31 50 C20.77 50 10.54 50 0 50 C0.05112509 55.58797196 0.11416125 61.17319412 0.20751953 66.76025391 C0.2356792 68.65925154 0.25691858 70.5583653 0.27099609 72.45751953 C0.29249518 75.19363638 0.33918008 77.92836452 0.390625 80.6640625 C0.39185364 81.50804596 0.39308228 82.35202942 0.39434814 83.22158813 C0.52594839 88.56322719 1.29886489 91.86423181 5 96 C8.34603936 97.85588814 11.29187788 98.27454765 15.08203125 98.4140625 C16.01337891 98.45273438 16.94472656 98.49140625 17.90429688 98.53125 C18.86400391 98.5621875 19.82371094 98.593125 20.8125 98.625 C21.79154297 98.66367188 22.77058594 98.70234375 23.77929688 98.7421875 C26.1858998 98.83610371 28.59292351 98.91912564 31 99 C31 105.27 31 111.54 31 118 C26.70764183 118.1086673 22.41807833 118.18765239 18.125 118.25 C16.92101562 118.28351563 15.71703125 118.31703125 14.4765625 118.3515625 C4.15546708 118.46374832 -5.32642216 116.33994402 -13 109 C-22.49643209 97.6663835 -21.38208125 83.18651043 -21.1875 69.3125 C-21.17242481 67.43555762 -21.15874142 65.55860352 -21.14648438 63.68164062 C-21.11627856 59.12056252 -21.0575202 54.56113885 -21 50 C-29.25 50 -37.5 50 -46 50 C-42.6434944 43.2869888 -38.72889521 35.99135838 -33 31 C-28.7186928 29.76339689 -25.31028754 29.98448723 -21 31 C-21.04189453 30.42032471 -21.08378906 29.84064941 -21.12695312 29.2434082 C-21.29390228 26.60048679 -21.39744945 23.95867046 -21.5 21.3125 C-21.60054688 19.94448242 -21.60054688 19.94448242 -21.703125 18.54882812 C-21.78227498 15.82804765 -21.73515087 13.62429143 -21 11 C-18.65536686 8.60594254 -16.03067043 7.3638017 -13 6 C-11.97132813 5.40574219 -10.94265625 4.81148437 -9.8828125 4.19921875 C-8.97273438 3.70035156 -8.06265625 3.20148437 -7.125 2.6875 C-6.19945312 2.17574219 -5.27390625 1.66398437 -4.3203125 1.13671875 C-2 0 -2 0 0 0 Z " fill="#081435" transform="translate(397,44)"/>
<path d="M0 0 C29.7 0 59.4 0 90 0 C88.47235713 4.58292862 86.80056961 8.96122847 84.875 13.375 C83.92625 15.56125 82.9775 17.7475 82 20 C73.09 20 64.18 20 55 20 C55 49.04 55 78.08 55 108 C48.07 108 41.14 108 34 108 C34 78.96 34 49.92 34 20 C22.78 20 11.56 20 0 20 C0 13.4 0 6.8 0 0 Z " fill="#091637" transform="translate(852,54)"/>
<path d="M0 0 C7.26 0 14.52 0 22 0 C22 35.64 22 71.28 22 108 C14.74 108 7.48 108 0 108 C0 72.36 0 36.72 0 0 Z " fill="#0E1937" transform="translate(817,54)"/>
<path d="M0 0 C20.97621006 -2.04086327 20.97621006 -2.04086327 27.10253906 1.06640625 C30.47666121 3.86125433 32.69548532 7.38939627 34.88037109 11.14794922 C36.37999426 13.62857314 38.13790543 15.84500344 39.94238281 18.10888672 C41.22048476 19.71295716 42.45933647 21.34088362 43.69140625 22.98046875 C45.16390429 24.90642643 46.66897717 26.80819993 48.21484375 28.67578125 C49.19130859 29.85720703 49.19130859 29.85720703 50.1875 31.0625 C50.75855469 31.73410156 51.32960938 32.40570313 51.91796875 33.09765625 C53 35 53 35 52.89453125 36.9609375 C51.76560613 39.53429519 50.29640172 41.39897649 48.5 43.5625 C47.40558594 44.89474609 47.40558594 44.89474609 46.2890625 46.25390625 C45.53367187 47.16011719 44.77828125 48.06632812 44 49 C37.32080968 57.07388715 30.8461745 65.2867104 24.4296875 73.5703125 C23.85710205 74.28936768 23.2845166 75.00842285 22.69458008 75.74926758 C20.94552434 77.9927779 20.94552434 77.9927779 19.4675293 80.5378418 C17.08384449 84.26154797 15.52414099 86.62719223 11.10546875 87.70800781 C7.71285058 87.88597789 4.45175365 87.78793643 1.0625 87.5625 C-0.09830078 87.52189453 -1.25910156 87.48128906 -2.45507812 87.43945312 C-5.30773287 87.33379925 -8.15166354 87.18628025 -11 87 C-7.74522861 81.94590781 -4.1470589 77.22755203 -0.4375 72.5 C0.18020264 71.70972412 0.79790527 70.91944824 1.43432617 70.10522461 C2.69154954 68.49759297 3.94976099 66.89073352 5.20898438 65.28466797 C6.82416188 63.22430387 8.43613216 61.16148754 10.046875 59.09765625 C15.60501149 51.98670936 21.24970997 44.95714102 27 38 C25.44380085 32.96410088 22.39254657 29.52471862 19.0625 25.5625 C17.89107553 24.14393193 16.72051936 22.72464645 15.55078125 21.3046875 C14.95990723 20.59022461 14.3690332 19.87576172 13.76025391 19.13964844 C11.05428655 15.85045317 8.39370151 12.52684238 5.75 9.1875 C5.284729 8.60750244 4.81945801 8.02750488 4.34008789 7.42993164 C2.38278998 4.95236274 1.00765319 3.02295956 0 0 Z " fill="#05102E" transform="translate(263,75)"/>
<path d="M0 0 C4.94691609 2.91267022 8.68294331 6.50976743 10.52734375 12.04296875 C11.09794824 18.31961816 10.8234525 23.51401214 7.52734375 29.04296875 C3.70777307 33.03783373 -0.41828973 36.68770255 -6.05859375 37.34375 C-14.46395995 37.37906666 -19.18777237 35.62970934 -25.17578125 29.73828125 C-28.6736026 25.16582804 -28.97118379 20.39773124 -28.84375 14.828125 C-28.1294099 9.4668146 -25.62976247 6.12884976 -21.81640625 2.44140625 C-15.61225023 -2.26428836 -7.19470402 -2.78468007 0 0 Z " fill="#F6F7F8" transform="translate(278.47265625,206.95703125)"/>
<path d="M0 0 C4.5830511 2.82033914 9.20170731 6.78807994 10.921875 12.05859375 C12.1945936 19.58884547 10.25803366 24.69065031 6.25 31 C1.86376198 35.49870566 -2.93962931 37.05616646 -9.125 37.375 C-14.01790083 37.25123354 -17.75882133 35.80559045 -21.75 33 C-27.43348921 26.86781428 -28.19768314 22.60300089 -28.0625 14.390625 C-27.5292762 8.60514672 -24.82599384 5.86157434 -20.6875 2.1875 C-14.57867675 -2.3616237 -7.13476205 -1.90260321 0 0 Z " fill="#F5F6F7" transform="translate(613.75,207)"/>
<path d="M0 0 C1.63038208 -0.03287109 1.63038208 -0.03287109 3.29370117 -0.06640625 C8.26749206 -0.00321509 13.216337 0.22248927 18.17578125 0.6015625 C16.3506366 4.44117574 13.94756776 7.60939351 11.30078125 10.9140625 C10.57701294 11.82623535 10.57701294 11.82623535 9.83862305 12.75683594 C8.28829811 14.70826601 6.7325356 16.65525887 5.17578125 18.6015625 C4.13797636 19.90230826 3.10021569 21.20308932 2.0625 22.50390625 C0.53378435 24.41951609 -0.99698583 26.33327743 -2.53466797 28.24169922 C-4.80319517 31.05782761 -7.03781999 33.88415729 -9.21875 36.76953125 C-9.91355469 37.68347656 -10.60835938 38.59742188 -11.32421875 39.5390625 C-11.91203125 40.33183594 -12.49984375 41.12460938 -13.10546875 41.94140625 C-14.82421875 43.6015625 -14.82421875 43.6015625 -18.82421875 43.6015625 C-20.75328192 41.63742545 -22.40006813 39.76238481 -24.07421875 37.6015625 C-24.76257813 36.74304688 -24.76257813 36.74304688 -25.46484375 35.8671875 C-26.59546618 34.45390946 -27.71129692 33.02882103 -28.82421875 31.6015625 C-27.0106189 25.6671883 -22.83180928 21.42022248 -18.88598633 16.78320312 C-16.28109291 13.6995859 -13.97950928 10.88473934 -12.03125 7.33203125 C-9.09912189 2.06324577 -5.992113 0.10310462 0 0 Z " fill="#0687FB" transform="translate(336.82421875,60.3984375)"/>
<path d="M0 0 C3.1521808 2.40420569 5.76102375 4.69415238 8.125 7.875 C8.71796875 8.65875 9.3109375 9.4425 9.921875 10.25 C10.60765625 11.1575 11.2934375 12.065 12 13 C13.78187688 15.29937645 15.57771369 17.58765755 17.375 19.875 C17.84091553 20.47006348 18.30683105 21.06512695 18.78686523 21.67822266 C22.57059376 26.49601769 26.46478298 31.21049614 30.41796875 35.890625 C32 38 32 38 32 40 C11.25579638 42.69992285 11.25579638 42.69992285 4.52246094 38.42822266 C0.37174707 34.51510138 -2.72186171 29.94188823 -5.67773438 25.08886719 C-7.53809432 22.14993815 -9.71142882 19.61431671 -12 17 C-10.25477062 12.94785821 -7.5771843 9.69396039 -4.875 6.25 C-4.40707031 5.64800781 -3.93914062 5.04601562 -3.45703125 4.42578125 C-2.30774993 2.94813384 -1.15428765 1.47373995 0 0 Z " fill="#07102A" transform="translate(322,122)"/>
<path d="M0 0 C2.16412879 -0.00970026 4.32730513 -0.0407333 6.49121094 -0.07226562 C7.87401782 -0.0787969 9.25683147 -0.08404688 10.63964844 -0.08789062 C12.51982666 -0.10190918 12.51982666 -0.10190918 14.43798828 -0.11621094 C19.04239866 0.37141703 21.57716496 2.0136884 24.80371094 5.24023438 C25.53733539 10.92582389 25.53733539 10.92582389 24.80371094 13.24023438 C19.79461817 17.52548709 15.8667898 17.79475592 9.42480469 17.70898438 C8.5351149 17.71603394 7.64542511 17.7230835 6.72877502 17.73034668 C3.89929152 17.75231807 1.07075448 17.74938913 -1.75878906 17.74023438 C-5.48976827 17.72818566 -9.21933958 17.74189068 -12.95019531 17.77148438 C-14.22848961 17.754505 -14.22848961 17.754505 -15.53260803 17.73718262 C-20.78197004 17.78179205 -23.26988927 18.46040144 -27.19628906 22.24023438 C-27.85628906 22.24023438 -28.51628906 22.24023438 -29.19628906 22.24023438 C-28.93908228 15.16704786 -26.78419748 10.63527483 -22.19628906 5.24023438 C-15.56053485 -0.56605056 -8.31271442 0.02257867 0 0 Z " fill="#EFF0F2" transform="translate(210.1962890625,93.759765625)"/>
<path d="M0 0 C0.78436935 -0.00807175 1.56873871 -0.01614349 2.37687683 -0.02445984 C4.03874502 -0.03829937 5.70064162 -0.04902212 7.36254883 -0.05688477 C9.8978501 -0.07408228 12.43184189 -0.1179653 14.96679688 -0.16210938 C16.58202167 -0.1722379 18.19725754 -0.18075351 19.8125 -0.1875 C20.56787552 -0.20500809 21.32325104 -0.22251617 22.10151672 -0.24055481 C25.76577498 -0.22553895 27.9293927 0.13157504 31.08862305 2.04614258 C33.10546875 4.23828125 33.10546875 4.23828125 33.66796875 7.73828125 C33.0306632 11.70373798 32.24310125 12.83891522 29.10546875 15.23828125 C25.71407519 16.93397803 21.84940876 16.39621489 18.1171875 16.4140625 C16.27798338 16.43726317 14.43879063 16.46138061 12.59960938 16.48632812 C9.6962933 16.52143206 6.79339496 16.55077928 3.88989258 16.56420898 C1.09014104 16.57969829 -1.70838522 16.6199166 -4.5078125 16.6640625 C-5.37255692 16.66215408 -6.23730133 16.66024567 -7.12825012 16.65827942 C-12.3988142 16.76505416 -14.95461716 17.44182552 -18.89453125 21.23828125 C-19.55453125 21.23828125 -20.21453125 21.23828125 -20.89453125 21.23828125 C-21.5573355 14.87536046 -19.89161892 11.19051715 -15.89453125 6.23828125 C-10.74702676 1.1411191 -7.09598816 0.06883933 0 0 Z " fill="#F2F8FD" transform="translate(615.89453125,94.76171875)"/>
<path d="M0 0 C4.94691609 2.91267022 8.68294331 6.50976743 10.52734375 12.04296875 C11.09794824 18.31961816 10.8234525 23.51401214 7.52734375 29.04296875 C3.70777307 33.03783373 -0.41828973 36.68770255 -6.05859375 37.34375 C-14.46395995 37.37906666 -19.18777237 35.62970934 -25.17578125 29.73828125 C-28.6736026 25.16582804 -28.97118379 20.39773124 -28.84375 14.828125 C-28.1294099 9.4668146 -25.62976247 6.12884976 -21.81640625 2.44140625 C-15.61225023 -2.26428836 -7.19470402 -2.78468007 0 0 Z M-21.47265625 10.04296875 C-23.44715294 13.99196212 -22.91036123 18.73886979 -22.47265625 23.04296875 C-20.33525742 27.47609225 -18.05524045 30.16827521 -13.47265625 32.04296875 C-7.07660243 32.65211673 -2.83396287 31.80404205 2.27734375 27.60546875 C5.55930745 23.50301413 5.9815612 20.31189112 5.52734375 15.04296875 C3.89185607 10.87247516 1.95464997 7.93475837 -1.47265625 5.04296875 C-9.66707842 2.31149469 -15.83877005 3.39257097 -21.47265625 10.04296875 Z " fill="#181F38" transform="translate(278.47265625,206.95703125)"/>
<path d="M0 0 C5 0 5 0 6.5625 1.40625 C7.036875 2.0971875 7.51125 2.788125 8 3.5 C12.00371974 9.07310654 16.33944779 14.32209898 20.73242188 19.58984375 C21.28349609 20.26015625 21.83457031 20.93046875 22.40234375 21.62109375 C22.90241943 22.2236499 23.40249512 22.82620605 23.91772461 23.44702148 C25 25 25 25 25 27 C25.66 27 26.32 27 27 27 C27 18.09 27 9.18 27 0 C28.65 0 30.3 0 32 0 C32 12.21 32 24.42 32 37 C27 37 27 37 25.1484375 35.5234375 C24.56320312 34.81445312 23.97796875 34.10546875 23.375 33.375 C22.70082031 32.56546875 22.02664063 31.7559375 21.33203125 30.921875 C20.56246094 29.95765625 19.79289063 28.9934375 19 28 C18.53126465 27.42185547 18.0625293 26.84371094 17.57958984 26.24804688 C16.06569585 24.38010891 14.56170771 22.50474205 13.0625 20.625 C12.57765137 20.01833496 12.09280273 19.41166992 11.59326172 18.78662109 C9.56834868 16.20480287 8.0459025 14.13770749 7 11 C6.34 11 5.68 11 5 11 C5 19.58 5 28.16 5 37 C3.35 37 1.7 37 0 37 C0 24.79 0 12.58 0 0 Z " fill="#08122B" transform="translate(667,206)"/>
<path d="M0 0 C4.5830511 2.82033914 9.20170731 6.78807994 10.921875 12.05859375 C12.1945936 19.58884547 10.25803366 24.69065031 6.25 31 C1.86376198 35.49870566 -2.93962931 37.05616646 -9.125 37.375 C-14.01790083 37.25123354 -17.75882133 35.80559045 -21.75 33 C-27.43348921 26.86781428 -28.19768314 22.60300089 -28.0625 14.390625 C-27.5292762 8.60514672 -24.82599384 5.86157434 -20.6875 2.1875 C-14.57867675 -2.3616237 -7.13476205 -1.90260321 0 0 Z M-21.625 10.25 C-23.64341587 15.18390545 -23.35210892 19.29402472 -21.625 24.1875 C-19.40494457 27.51758315 -17.36663629 30.22565861 -13.75 32 C-8.71302314 32.94187372 -4.91468386 32.5717539 -0.3125 30.3125 C4.13979644 26.29457394 5.44236562 23.53708356 5.75 17.5625 C5.64904939 13.81723239 5.3598855 11.39464048 3 8.4375 C-1.70368211 4.26832722 -5.08772468 3.54685695 -11.27734375 3.68359375 C-16.01199674 4.28944982 -18.66305649 6.69566779 -21.625 10.25 Z " fill="#151C34" transform="translate(613.75,207)"/>
<path d="M0 0 C1.22332031 -0.01417969 2.44664062 -0.02835938 3.70703125 -0.04296875 C7.01421123 0.17602521 9.2266898 0.76067147 12.1875 2.1875 C11.8575 3.8375 11.5275 5.4875 11.1875 7.1875 C10.49140625 7.02507812 9.7953125 6.86265625 9.078125 6.6953125 C5.97648764 6.15043026 3.08487565 6.05474784 -0.0625 6.0625 C-1.11953125 6.05992187 -2.1765625 6.05734375 -3.265625 6.0546875 C-5.74732251 5.89921462 -5.74732251 5.89921462 -6.8125 7.1875 C-6.85330783 9.18708364 -6.85504356 11.18795254 -6.8125 13.1875 C-6.26722656 13.35765625 -5.72195312 13.5278125 -5.16015625 13.703125 C10.68143538 18.79409804 10.68143538 18.79409804 14.1875 23.1875 C14.60220416 26.91983742 14.48827687 29.45226765 13.0625 32.9375 C9.98735506 36.62767392 7.2005451 37.95533446 2.41015625 38.5078125 C-4.49750564 38.76913641 -8.93333284 37.80544902 -14.8125 34.1875 C-14.1525 32.5375 -13.4925 30.8875 -12.8125 29.1875 C-11.884375 29.6825 -10.95625 30.1775 -10 30.6875 C-5.15317394 32.78315635 -0.00669211 32.85077163 5.1875 32.1875 C7.4366908 30.36046773 7.4366908 30.36046773 7.4375 27.6875 C7.4366908 25.01453227 7.4366908 25.01453227 5.1875 23.1875 C1.96059109 22.38627569 -1.28425478 21.78235599 -4.55078125 21.1640625 C-8.12753402 20.09317844 -10.1134645 18.73413095 -12.8125 16.1875 C-14.38705739 13.03838521 -14.16049118 10.66741184 -13.8125 7.1875 C-10.16231735 1.05846197 -6.85832576 0.03590746 0 0 Z " fill="#191F36" transform="translate(195.8125,205.8125)"/>
<path d="M0 0 C1.98 0 3.96 0 6 0 C6.01458252 0.72590332 6.02916504 1.45180664 6.04418945 2.19970703 C6.11894859 5.50865732 6.2155179 8.81662952 6.3125 12.125 C6.33505859 13.26710937 6.35761719 14.40921875 6.38085938 15.5859375 C6.57791048 23.7766585 6.57791048 23.7766585 10 31 C13.77438614 32.88719307 18.4238055 32.49774563 22.375 31.25 C24.44295256 29.65926726 25.02559447 28.4264911 26 26 C26.36504688 23.09900073 26.36504688 23.09900073 26.4140625 19.921875 C26.45273437 18.76171875 26.49140625 17.6015625 26.53125 16.40625 C26.57765625 14.59640625 26.57765625 14.59640625 26.625 12.75 C26.66367187 11.52796875 26.70234375 10.3059375 26.7421875 9.046875 C26.83642108 6.0314006 26.92203455 3.01593172 27 0 C28.65 0 30.3 0 32 0 C32.14935324 4.00151808 32.2576761 8.00193764 32.32958984 12.00561523 C32.35959295 13.36462697 32.40041185 14.72344781 32.45263672 16.08178711 C32.92973307 28.81838875 32.92973307 28.81838875 29.1171875 33.34375 C24.36317969 37.83485667 19.83165157 38.44791513 13.4375 38.32421875 C9.84944706 37.84696171 7.71690183 36.31930644 5 34 C4.4225 33.566875 3.845 33.13375 3.25 32.6875 C-1.19022795 26.69319226 -0.23367241 18.605308 -0.125 11.5625 C-0.11597656 10.44939453 -0.10695313 9.33628906 -0.09765625 8.18945312 C-0.0742224 5.45940977 -0.041414 2.7298199 0 0 Z " fill="#232A41" transform="translate(396,206)"/>
<path d="M0 0 C1.11246094 -0.01675781 2.22492187 -0.03351563 3.37109375 -0.05078125 C6.84742148 0.34493292 8.73409635 1.30882714 11.5625 3.3125 C11.2325 4.6325 10.9025 5.9525 10.5625 7.3125 C9.85480469 7.15007812 9.14710938 6.98765625 8.41796875 6.8203125 C5.50839394 6.30287785 2.82737098 6.17944442 -0.125 6.1875 C-1.07761719 6.18492187 -2.03023437 6.18234375 -3.01171875 6.1796875 C-5.44746498 6.15179591 -5.44746498 6.15179591 -7.4375 7.3125 C-7.4375 9.2925 -7.4375 11.2725 -7.4375 13.3125 C-3.21064399 14.92639048 0.98114966 16.4426936 5.3125 17.75 C8.94192584 18.97234549 11.42731093 19.97046493 13.5625 23.3125 C14.04334494 27.09056741 13.88042076 29.53536036 12.4375 33.0625 C9.36235506 36.75267392 6.5755451 38.08033446 1.78515625 38.6328125 C-5.12250564 38.89413641 -9.55833284 37.93044902 -15.4375 34.3125 C-14.7775 32.6625 -14.1175 31.0125 -13.4375 29.3125 C-8.6875 31.1875 -8.6875 31.1875 -6.4375 32.3125 C-4.60712713 32.43395993 -2.77185867 32.48793185 -0.9375 32.5 C0.0421875 32.51417969 1.021875 32.52835938 2.03125 32.54296875 C4.732418 32.56930034 4.732418 32.56930034 6.5625 30.3125 C6.89583333 27.8125 6.89583333 27.8125 6.5625 25.3125 C4.03789076 22.78789076 2.28228804 22.67116165 -1.1875 21.9375 C-6.1360772 20.76718823 -9.5459928 19.57295198 -13.4375 16.3125 C-14.98774464 13.21201072 -14.72742015 10.73355782 -14.4375 7.3125 C-10.66176474 1.24435404 -6.94796172 0.02409698 0 0 Z " fill="#0D142B" transform="translate(756.4375,205.6875)"/>
<path d="M0 0 C1.18884104 0.00128403 1.18884104 0.00128403 2.40169907 0.00259399 C12.30948911 0.0140812 22.21724303 0.03429518 32.125 0.0625 C32.125 1.7125 32.125 3.3625 32.125 5.0625 C-3.55516018 5.20812657 -39.20357161 4.86220547 -74.875 4.0625 C-74.875 3.0725 -74.875 2.0825 -74.875 1.0625 C-49.91748937 0.10523957 -24.97218548 -0.02716213 0 0 Z " fill="#2C7EEA" transform="translate(110.875,221.9375)"/>
<path d="M0 0 C33.68297563 -0.12432055 67.32928479 0.04667252 101 1 C101 1.99 101 2.98 101 4 C90.72924692 4.17176258 80.45841524 4.33823922 70.1875 4.5 C69.43356209 4.51187725 68.67962418 4.5237545 67.90283966 4.53599167 C45.26772262 4.8909993 22.6384047 5.16589586 0 5 C0 3.35 0 1.7 0 0 Z " fill="#0E64E9" transform="translate(806,222)"/>
<path d="M0 0 C33.33 0 66.66 0 101 0 C101 0.99 101 1.98 101 3 C79.73585555 3.98348403 58.51901151 4.12724225 37.23736572 4.06866455 C33.01892623 4.0582098 28.80048012 4.05382084 24.58203125 4.04882812 C16.38800355 4.03828293 8.19400667 4.02134713 0 4 C0 2.68 0 1.36 0 0 Z " fill="#2770E3" transform="translate(806,288)"/>
<path d="M0 0 C35.31 0 70.62 0 107 0 C107 1.32 107 2.64 107 4 C84.81488539 4.09188724 62.63865685 3.83711194 40.45599365 3.53643799 C35.87562811 3.47476035 31.29523476 3.4152194 26.71484375 3.35546875 C17.80986821 3.23900446 8.90492486 3.12027672 0 3 C0 2.01 0 1.02 0 0 Z " fill="#1764E0" transform="translate(36,288)"/>
<path d="M0 0 C10.23 0 20.46 0 31 0 C31 1.65 31 3.3 31 5 C26.71 5 22.42 5 18 5 C18 15.56 18 26.12 18 37 C16.35 37 14.7 37 13 37 C13 26.44 13 15.88 13 5 C8.71 5 4.42 5 0 5 C0 3.35 0 1.7 0 0 Z " fill="#28334E" transform="translate(468,206)"/>
<path d="M0 0 C1.65 0 3.3 0 5 0 C5 10.89 5 21.78 5 33 C11.6 33 18.2 33 25 33 C25 34.32 25 35.64 25 37 C16.75 37 8.5 37 0 37 C0 24.79 0 12.58 0 0 Z " fill="#0E1934" transform="translate(331,206)"/>
<path d="M0 0 C0.10812003 2.75105422 0.18734945 5.49785087 0.25 8.25 C0.30027344 9.41595703 0.30027344 9.41595703 0.3515625 10.60546875 C0.41603054 14.37684894 0.44268465 16.36351784 -1.7578125 19.52734375 C-5.37147389 21.9007764 -7.74364395 21.34325452 -12 21 C-12.66 20.67 -13.32 20.34 -14 20 C-13.67 19.01 -13.34 18.02 -13 17 C-11.88625 17.185625 -10.7725 17.37125 -9.625 17.5625 C-6.17431139 18.31680657 -6.17431139 18.31680657 -4 17 C-4 16.01 -4 15.02 -4 14 C-5.258125 14.061875 -6.51625 14.12375 -7.8125 14.1875 C-10.33113951 14.16521115 -11.72995606 14.13502197 -14 13 C-15.63835333 9.72329334 -15.59497771 6.52736782 -15 3 C-11.9261622 -3.00130238 -5.6597446 -0.89775259 0 0 Z " fill="#586176" transform="translate(297,287)"/>
<path d="M0 0 C1.98 0 3.96 0 6 0 C6 12.54 6 25.08 6 38 C4.02 38 2.04 38 0 38 C0 25.46 0 12.92 0 0 Z " fill="#202641" transform="translate(538,206)"/>
<path d="M0 0 C1.65 0 3.3 0 5 0 C5.14935324 4.00151808 5.2576761 8.00193764 5.32958984 12.00561523 C5.35959295 13.36462697 5.40041185 14.72344781 5.45263672 16.08178711 C5.92971964 28.81803026 5.92971964 28.81803026 2.1015625 33.37109375 C-1.58910989 36.87392426 -4.06259503 37.11635537 -9.125 37.0625 C-10.22070312 37.05347656 -11.31640625 37.04445312 -12.4453125 37.03515625 C-13.28835938 37.02355469 -14.13140625 37.01195312 -15 37 C-12.35161475 33.02742212 -9.71092843 32.63695417 -5.3125 31.16015625 C-2.47086566 29.73453902 -2.12004931 28.93229529 -1 26 C-0.63495312 23.09900073 -0.63495312 23.09900073 -0.5859375 19.921875 C-0.54726563 18.76171875 -0.50859375 17.6015625 -0.46875 16.40625 C-0.42234375 14.59640625 -0.42234375 14.59640625 -0.375 12.75 C-0.33632813 11.52796875 -0.29765625 10.3059375 -0.2578125 9.046875 C-0.16357892 6.0314006 -0.07796545 3.01593172 0 0 Z " fill="#1B2235" transform="translate(423,206)"/>
<path d="M0 0 C4.0743356 0.84881992 5.54405875 2.30225596 8 5.625 C8.70960213 9.40954468 8.27801176 11.09214413 6.5 14.5 C3.45831021 17.08543632 1.79992767 17.31510681 -2.09375 17.0390625 C-4 16.625 -4 16.625 -6.5 15.0625 C-8.61006839 11.63363886 -8.62491523 9.58279649 -8 5.625 C-5.55401113 2.24378009 -4.10703441 0.85563217 0 0 Z " fill="#4E556B" transform="translate(459,285.375)"/>
<path d="M0 0 C3.71317907 1.14770989 5.2692056 1.85342428 7.4375 5.0625 C8.07406938 8.80234509 7.69334708 10.57212644 5.9375 13.9375 C2.89581021 16.52293632 1.23742767 16.75260681 -2.65625 16.4765625 C-4.5625 16.0625 -4.5625 16.0625 -7.0625 14.5 C-9.17256839 11.07113886 -9.18741523 9.02029649 -8.5625 5.0625 C-5.90798953 1.20139386 -4.7398766 0.08315573 0 0 Z " fill="#5D6479" transform="translate(562.5625,285.9375)"/>
<path d="M0 0 C3.71317907 1.14770989 5.2692056 1.85342428 7.4375 5.0625 C8.07406938 8.80234509 7.69334708 10.57212644 5.9375 13.9375 C2.89581021 16.52293632 1.23742767 16.75260681 -2.65625 16.4765625 C-4.5625 16.0625 -4.5625 16.0625 -7.0625 14.5 C-9.17256839 11.07113886 -9.18741523 9.02029649 -8.5625 5.0625 C-5.90798953 1.20139386 -4.7398766 0.08315573 0 0 Z " fill="#585E74" transform="translate(332.5625,285.9375)"/>
<path d="M0 0 C3.32878632 2.46040728 4.79301948 3.89610387 5.5625 8 C4.84202557 11.8425303 3.99097304 13.45767292 1 16 C-1.82462492 16.71773256 -4.17452478 16.71070236 -7 16 C-9.5625 13.9375 -9.5625 13.9375 -11 11 C-11 7.04475779 -10.56831266 4.82089606 -8.3125 1.5625 C-5.22266708 -0.52522494 -3.6619192 -0.6725974 0 0 Z " fill="#474F68" transform="translate(212,286)"/>
<path d="M0 0 C0 0.33 0 0.66 0 1 C-12.375 1.495 -12.375 1.495 -25 2 C-25 2.33 -25 2.66 -25 3 C-44.65187766 4.31955054 -64.31583295 4.09900726 -84 4 C-84 3.01 -84 2.02 -84 1 C-55.99424843 0.06796224 -28.01987083 -0.12284444 0 0 Z " fill="#317AEB" transform="translate(120,222)"/>
<path d="M0 0 C1.65 0 3.3 0 5 0 C5 12.21 5 24.42 5 37 C3.35 37 1.7 37 0 37 C-1 36 -1 36 -1.0625 33.625 C-1.041875 32.75875 -1.02125 31.8925 -1 31 C-1 30.01 -1 29.02 -1 28 C-0.34 28 0.32 28 1 28 C0.83628906 27.24460938 0.67257812 26.48921875 0.50390625 25.7109375 C-0.18077669 20.66869881 -0.10511821 15.70640205 -0.0625 10.625 C-0.05798828 9.60277344 -0.05347656 8.58054688 -0.04882812 7.52734375 C-0.037103 5.01816806 -0.02069176 2.5091151 0 0 Z " fill="#121A2B" transform="translate(694,206)"/>
<path d="M0 0 C10.57745902 -0.12592213 10.57745902 -0.12592213 15 1 C15.33 0.67 15.66 0.34 16 0 C19.20003488 -0.43243715 20.5430667 -0.34580978 23.15234375 1.62890625 C25.53989126 4.69284142 25.41668735 6.41619089 25.25 10.25 C25.21390625 11.32765625 25.1778125 12.4053125 25.140625 13.515625 C25.07101562 14.74539063 25.07101562 14.74539063 25 16 C24.01 16 23.02 16 22 16 C21.93941406 15.21753906 21.87882813 14.43507813 21.81640625 13.62890625 C21.69072266 12.11103516 21.69072266 12.11103516 21.5625 10.5625 C21.48128906 9.55316406 21.40007813 8.54382813 21.31640625 7.50390625 C21.26788532 5.06359221 21.26788532 5.06359221 20 4 C18.35 4 16.7 4 15 4 C14.67 7.96 14.34 11.92 14 16 C13.01 16 12.02 16 11 16 C10.67 12.04 10.34 8.08 10 4 C8.35 4 6.7 4 5 4 C3.26043342 5.73956658 3.62809614 8.1936622 3.4375 10.5625 C3.35371094 11.57441406 3.26992188 12.58632813 3.18359375 13.62890625 C3.12300781 14.41136719 3.06242188 15.19382812 3 16 C2.01 16 1.02 16 0 16 C0 10.72 0 5.44 0 0 Z " fill="#6A7083" transform="translate(579,286)"/>
<path d="M0 0 C0.99 0.66 1.98 1.32 3 2 C4.12355358 8.02533144 3.12394503 13.75983414 0 19 C-6.76602535 25.92264631 -6.76602535 25.92264631 -11.8203125 26.09765625 C-12.91085937 26.08605469 -14.00140625 26.07445312 -15.125 26.0625 C-16.22070312 26.05347656 -17.31640625 26.04445312 -18.4453125 26.03515625 C-19.70988281 26.01775391 -19.70988281 26.01775391 -21 26 C-21.33 24.68 -21.66 23.36 -22 22 C-20.78763672 21.85304687 -20.78763672 21.85304687 -19.55078125 21.703125 C-11.41271694 20.73818307 -11.41271694 20.73818307 -5 16 C-3.15453888 12.91085856 -2.65685747 10.32019465 -2.375 6.75 C-2.30023438 5.85796875 -2.22546875 4.9659375 -2.1484375 4.046875 C-2.09945313 3.37140625 -2.05046875 2.6959375 -2 2 C-1.34 2 -0.68 2 0 2 C0 1.34 0 0.68 0 0 Z " fill="#0B1432" transform="translate(286,217)"/>
<path d="M0 0 C0.33 -0.33 0.66 -0.66 1 -1 C6.29392491 -1.4603413 6.29392491 -1.4603413 8.68359375 0.09765625 C10.64837283 2.93696608 10.28858169 5.28441648 10.1875 8.6875 C10.16042969 9.86699219 10.13335938 11.04648437 10.10546875 12.26171875 C10.07066406 13.16535156 10.03585937 14.06898438 10 15 C9.01 15 8.02 15 7 15 C6.67 11.04 6.34 7.08 6 3 C4.35 3 2.7 3 1 3 C0.67 6.96 0.34 10.92 0 15 C-0.99 15 -1.98 15 -3 15 C-3.33 11.37 -3.66 7.74 -4 4 C-5.65 3.67 -7.3 3.34 -9 3 C-10.73956658 4.73956658 -10.37190386 7.1936622 -10.5625 9.5625 C-10.64628906 10.57441406 -10.73007812 11.58632813 -10.81640625 12.62890625 C-10.87699219 13.41136719 -10.93757812 14.19382812 -11 15 C-11.99 15 -12.98 15 -14 15 C-14 10.05 -14 5.1 -14 0 C-8.69960198 -1.0600796 -5.15531194 -1.28882798 0 0 Z " fill="#5E667A" transform="translate(628,287)"/>
<path d="M0 0 C0.99 0 1.98 0 3 0 C3 0.99 3 1.98 3 3 C4.97536745 2.65213292 4.97536745 2.65213292 7 2 C7.33 1.34 7.66 0.68 8 0 C8.29216602 4.96682232 8.24708889 8.10349334 5 12 C-0.34931342 15.9776946 -6.61426071 15.79196506 -13 15 C-15.99213486 13.94314503 -18.27722095 12.67555634 -21 11 C-20.34 9.35 -19.68 7.7 -19 6 C-14.25 7.875 -14.25 7.875 -12 9 C-10.16962713 9.12145993 -8.33435867 9.17543185 -6.5 9.1875 C-5.5203125 9.20167969 -4.540625 9.21585938 -3.53125 9.23046875 C-0.830082 9.25680034 -0.830082 9.25680034 1 7 C1.20872719 4.21697081 1.25640898 2.51281795 0 0 Z " fill="#0A0F26" transform="translate(762,229)"/>
<path d="M0 0 C0.99 0 1.98 0 3 0 C3 0.66 3 1.32 3 2 C3.66 2 4.32 2 5 2 C5 1.34 5 0.68 5 0 C5.71027344 0.08378906 6.42054688 0.16757812 7.15234375 0.25390625 C8.53099609 0.40666016 8.53099609 0.40666016 9.9375 0.5625 C10.85402344 0.66691406 11.77054688 0.77132813 12.71484375 0.87890625 C13.84599609 0.93884766 13.84599609 0.93884766 15 1 C15.33 0.67 15.66 0.34 16 0 C18.69130204 -0.28329495 20.35917139 -0.42570411 22.65234375 1.09765625 C24.66046464 3.93230805 24.28915145 6.26523449 24.1875 9.6875 C24.16042969 10.86699219 24.13335938 12.04648437 24.10546875 13.26171875 C24.07066406 14.16535156 24.03585937 15.06898438 24 16 C23.34 16 22.68 16 22 16 C21.93941406 15.21753906 21.87882813 14.43507813 21.81640625 13.62890625 C21.69072266 12.11103516 21.69072266 12.11103516 21.5625 10.5625 C21.48128906 9.55316406 21.40007813 8.54382813 21.31640625 7.50390625 C21.26788532 5.06359221 21.26788532 5.06359221 20 4 C18.35 4 16.7 4 15 4 C14.67 7.96 14.34 11.92 14 16 C13.01 16 12.02 16 11 16 C10.67 12.37 10.34 8.74 10 5 C8.35 4.67 6.7 4.34 5 4 C3.26043342 5.73956658 3.62809614 8.1936622 3.4375 10.5625 C3.35371094 11.57441406 3.26992188 12.58632813 3.18359375 13.62890625 C3.12300781 14.41136719 3.06242188 15.19382812 3 16 C2.01 16 1.02 16 0 16 C0 10.72 0 5.44 0 0 Z " fill="#4A536A" transform="translate(680,286)"/>
<path d="M0 0 C3.17148118 1.05716039 3.70375382 1.54292951 5.6640625 4.0546875 C6.38722656 4.97701172 6.38722656 4.97701172 7.125 5.91796875 C7.62 6.56378906 8.115 7.20960938 8.625 7.875 C9.12773438 8.51308594 9.63046875 9.15117187 10.1484375 9.80859375 C12.30345695 12.58347094 13.87651892 14.62955675 15 18 C15.66 18 16.32 18 17 18 C17 16.35 17 14.7 17 13 C17.33 13 17.66 13 18 13 C18.16682272 17.92127034 18.24828052 21.50343896 16 26 C11.50044736 21.70692779 7.61007371 17.00689283 3.6875 12.1875 C2.71973633 11.00510742 2.71973633 11.00510742 1.73242188 9.79882812 C0.15252517 7.86784327 -1.4248674 5.93487133 -3 4 C-2.01 2.68 -1.02 1.36 0 0 Z " fill="#171E35" transform="translate(677,215)"/>
<path d="M0 0 C0 0.33 0 0.66 0 1 C2.31 1.33 4.62 1.66 7 2 C7 2.33 7 2.66 7 3 C6.40832031 3.10957031 5.81664062 3.21914062 5.20703125 3.33203125 C-0.45092246 4.46731397 -4.87842617 5.4995737 -8.75 10.0625 C-10.54298188 14.27600741 -10.74438904 18.46070188 -11 23 C-12.9375 23.5625 -12.9375 23.5625 -15 24 C-16.78072742 22.21927258 -16.25615294 19.72356123 -16.3125 17.3125 C-16.24565202 11.04364482 -14.92837516 8.08466484 -10.609375 3.53515625 C-7.12713562 0.22702884 -4.72916552 -0.5629959 0 0 Z " fill="#0E152A" transform="translate(602,207)"/>
<path d="M0 0 C0.66 0 1.32 0 2 0 C3.09828769 3.54188278 3.11445011 6.8209762 3.09765625 10.515625 C3.09282227 12.39121094 3.09282227 12.39121094 3.08789062 14.3046875 C3.07951172 15.60664063 3.07113281 16.90859375 3.0625 18.25 C3.05798828 19.56742188 3.05347656 20.88484375 3.04882812 22.2421875 C3.03704316 25.49483741 3.02059011 28.74739584 3 32 C1.35 32 -0.3 32 -2 32 C-2.05828635 27.79172527 -2.093693 23.58355511 -2.125 19.375 C-2.14175781 18.18519531 -2.15851563 16.99539062 -2.17578125 15.76953125 C-2.18222656 14.61582031 -2.18867188 13.46210938 -2.1953125 12.2734375 C-2.20578613 11.21560059 -2.21625977 10.15776367 -2.22705078 9.06787109 C-1.98270857 5.76636112 -1.16882977 3.08587237 0 0 Z " fill="#090F25" transform="translate(483,211)"/>
<path d="M0 0 C4.81209677 1.42580645 4.81209677 1.42580645 6.375 4 C6.375 5.65 6.375 7.3 6.375 9 C2.415 9 -1.545 9 -5.625 9 C-4.635 10.32 -3.645 11.64 -2.625 13 C1.00063814 13.33380814 1.00063814 13.33380814 4.375 13 C4.045 13.99 3.715 14.98 3.375 16 C-3.85391566 16.48192771 -3.85391566 16.48192771 -7.125 14.4375 C-9.23506839 11.00863886 -9.24991523 8.95779649 -8.625 5 C-5.93921083 1.09339758 -4.80084596 0 0 0 Z " fill="#535B70" transform="translate(722.625,286)"/>
<path d="M0 0 C0.99 0 1.98 0 3 0 C3.99 2.64 4.98 5.28 6 8 C7.32 5.36 8.64 2.72 10 0 C10.99 0 11.98 0 13 0 C14.32 3.3 15.64 6.6 17 10 C18.32 6.7 19.64 3.4 21 0 C21.66 0 22.32 0 23 0 C21.9318153 5.11365014 20.76892524 10.07227969 19 15 C17.68 15 16.36 15 15 15 C14.01 12.03 13.02 9.06 12 6 C10.68 8.97 9.36 11.94 8 15 C6.68 14.67 5.36 14.34 4 14 C2.734375 11.34765625 2.734375 11.34765625 1.75 8.0625 C1.41484375 6.98097656 1.0796875 5.89945312 0.734375 4.78515625 C0 2 0 2 0 0 Z " fill="#50586D" transform="translate(348,287)"/>
<path d="M0 0 C0.99 0 1.98 0 3 0 C3 2.64 3 5.28 3 8 C3.66 8 4.32 8 5 8 C5 7.34 5 6.68 5 6 C10.44041451 5.6373057 10.44041451 5.6373057 12.6875 7.09375 C14.64499078 9.93677233 14.28856821 12.28487016 14.1875 15.6875 C14.16042969 16.86699219 14.13335937 18.04648437 14.10546875 19.26171875 C14.07066406 20.16535156 14.03585937 21.06898438 14 22 C13.01 22 12.02 22 11 22 C10.67 18.04 10.34 14.08 10 10 C8.35 10 6.7 10 5 10 C3.26043342 11.73956658 3.62809614 14.1936622 3.4375 16.5625 C3.35371094 17.57441406 3.26992188 18.58632813 3.18359375 19.62890625 C3.12300781 20.41136719 3.06242187 21.19382812 3 22 C2.01 22 1.02 22 0 22 C0 14.74 0 7.48 0 0 Z " fill="#565E72" transform="translate(399,280)"/>
<path d="M0 0 C3.63 0 7.26 0 11 0 C11 6.27 11 12.54 11 19 C-8.8 19 -28.6 19 -49 19 C-49 18.67 -49 18.34 -49 18 C-35.7704342 17.29171056 -22.59021647 16.88150252 -9.34008789 17.03710938 C-2.64222648 17.09386629 3.47162988 16.63209253 10 15 C9.34 11.04 8.68 7.08 8 3 C5.36 2.34 2.72 1.68 0 1 C0 0.67 0 0.34 0 0 Z " fill="#1868CD" transform="translate(655,143)"/>
<path d="M0 0 C1.11246094 -0.01675781 2.22492187 -0.03351563 3.37109375 -0.05078125 C6.84742148 0.34493292 8.73409635 1.30882714 11.5625 3.3125 C11.2325 4.6325 10.9025 5.9525 10.5625 7.3125 C9.84964844 7.15007812 9.13679687 6.98765625 8.40234375 6.8203125 C1.89905725 5.65741395 -4.99014127 5.91847649 -11.4375 7.3125 C-12.4275 10.7775 -12.4275 10.7775 -13.4375 14.3125 C-13.7675 14.3125 -14.0975 14.3125 -14.4375 14.3125 C-14.75408501 10.27604118 -14.8585379 7.98916805 -12.6875 4.5 C-8.65089255 0.57552053 -5.60089312 0.01942506 0 0 Z " fill="#151B34" transform="translate(756.4375,205.6875)"/>
<path d="M0 0 C0.99 0 1.98 0 3 0 C3 5.28 3 10.56 3 16 C1.081875 16.0825 -0.83625 16.165 -2.8125 16.25 C-4.43091797 16.31960938 -4.43091797 16.31960938 -6.08203125 16.390625 C-9 16 -9 16 -10.875 14.34375 C-12.2607125 11.45684896 -12.30137102 9.4383886 -12.1875 6.25 C-12.16042969 5.26515625 -12.13335937 4.2803125 -12.10546875 3.265625 C-12.07066406 2.51796875 -12.03585937 1.7703125 -12 1 C-11.01 1 -10.02 1 -9 1 C-8.67 4.63 -8.34 8.26 -8 12 C-6.35 12.33 -4.7 12.66 -3 13 C-0.41073669 10.41073669 -0.62601957 8.97294721 -0.375 5.375 C-0.30023438 4.37210937 -0.22546875 3.36921875 -0.1484375 2.3359375 C-0.09945313 1.56507813 -0.05046875 0.79421875 0 0 Z " fill="#5B6275" transform="translate(488,286)"/>
<path d="M0 0 C0.99 0 1.98 0 3 0 C3 5.28 3 10.56 3 16 C-6.1796875 16.1953125 -6.1796875 16.1953125 -9 16 C-11 14 -11 14 -11.1953125 10.9609375 C-11.17210937 9.77757812 -11.14890625 8.59421875 -11.125 7.375 C-11.10695312 6.18648438 -11.08890625 4.99796875 -11.0703125 3.7734375 C-11.04710937 2.85820312 -11.02390625 1.94296875 -11 1 C-10.01 1 -9.02 1 -8 1 C-7.67 5.29 -7.34 9.58 -7 14 C-5.35 14 -3.7 14 -2 14 C-0.99740493 10.99221479 -0.69685358 8.46179353 -0.4375 5.3125 C-0.35371094 4.31863281 -0.26992187 3.32476562 -0.18359375 2.30078125 C-0.12300781 1.54152344 -0.06242188 0.78226562 0 0 Z " fill="#576075" transform="translate(238,286)"/>
<path d="M0 0 C12.21 0 24.42 0 37 0 C36.34 0.99 35.68 1.98 35 3 C32.93722534 3.36076355 32.93722534 3.36076355 30.36669922 3.34057617 C29.40585419 3.34034958 28.44500916 3.34012299 27.45504761 3.33988953 C26.41542877 3.32440567 25.37580994 3.30892181 24.3046875 3.29296875 C23.24210724 3.28872391 22.17952698 3.28447906 21.08474731 3.28010559 C17.68124354 3.26327389 14.27832567 3.22561303 10.875 3.1875 C8.57162312 3.17245899 6.26823698 3.15876958 3.96484375 3.14648438 C-1.69030505 3.11335574 -7.34511068 3.06311197 -13 3 C-13 2.67 -13 2.34 -13 2 C-6.565 1.505 -6.565 1.505 0 1 C0 0.67 0 0.34 0 0 Z " fill="#0359E5" transform="translate(87,223)"/>
<path d="M0 0 C2.13671875 1.62890625 2.13671875 1.62890625 4 4 C4.390625 7.015625 4.390625 7.015625 4.25 10.25 C4.21390625 11.32765625 4.1778125 12.4053125 4.140625 13.515625 C4.07101562 14.74539063 4.07101562 14.74539063 4 16 C3.01 16 2.02 16 1 16 C0.93941406 15.21753906 0.87882813 14.43507813 0.81640625 13.62890625 C0.73261719 12.61699219 0.64882813 11.60507812 0.5625 10.5625 C0.48128906 9.55316406 0.40007813 8.54382813 0.31640625 7.50390625 C0.26788532 5.06359221 0.26788532 5.06359221 -1 4 C-2.65 4 -4.3 4 -6 4 C-6.33 7.96 -6.66 11.92 -7 16 C-7.99 16 -8.98 16 -10 16 C-10 11.05 -10 6.1 -10 1 C-3.046875 -0.390625 -3.046875 -0.390625 0 0 Z " fill="#50586E" transform="translate(749,286)"/>
<path d="M0 0 C7.86543373 -0.0229685 15.73075085 -0.04287843 23.59619141 -0.05493164 C26.27134113 -0.05939157 28.94643734 -0.06677832 31.62158203 -0.07543945 C35.46908241 -0.08758344 39.31654644 -0.0932463 43.1640625 -0.09765625 C44.35802643 -0.10281754 45.55199036 -0.10797882 46.78213501 -0.11329651 C47.90284393 -0.11337204 49.02355286 -0.11344757 50.17822266 -0.11352539 C51.65048813 -0.11685631 51.65048813 -0.11685631 53.15249634 -0.12025452 C56.1700399 0.00718105 59.03364551 0.4453517 62 1 C62 1.33 62 1.66 62 2 C56.375 3.125 56.375 3.125 53 2 C51.3584155 1.91261102 49.71348378 1.88233379 48.06958008 1.88647461 C46.56836357 1.88658791 46.56836357 1.88658791 45.03681946 1.88670349 C43.95861435 1.89186478 42.88040924 1.89702606 41.76953125 1.90234375 C40.66397385 1.9037587 39.55841644 1.90517365 38.4193573 1.90663147 C34.88371083 1.91223486 31.34812738 1.92478796 27.8125 1.9375 C25.41731862 1.94251456 23.02213625 1.94707754 20.62695312 1.95117188 C14.75128053 1.96220539 8.87564477 1.97894684 3 2 C1.44504302 5.10991396 1.75923044 8.43344049 1.68359375 11.8515625 C1.66281265 12.62559418 1.64203156 13.39962585 1.62062073 14.19711304 C1.55516552 16.67298392 1.49625913 19.14896202 1.4375 21.625 C1.39431093 23.30209448 1.35069652 24.97917807 1.30664062 26.65625 C1.19948829 30.77072308 1.09820955 34.88530414 1 39 C0.67 39 0.34 39 0 39 C0 26.13 0 13.26 0 0 Z " fill="#1580F9" transform="translate(685,76)"/>
<path d="M0 0 C1.65 0 3.3 0 5 0 C3.68 0.33 2.36 0.66 1 1 C1.0868803 3.9389507 1.19373767 6.87481289 1.3125 9.8125 C1.33505859 10.64587891 1.35761719 11.47925781 1.38085938 12.33789062 C1.4340332 13.54155273 1.4340332 13.54155273 1.48828125 14.76953125 C1.51446533 15.50792236 1.54064941 16.24631348 1.56762695 17.00708008 C2.10642195 19.49052647 3.21853955 20.25131281 5 22 C5.2172101 24.64996326 5.28351554 27.05076558 5.1875 29.6875 C5.17396484 30.38939453 5.16042969 31.09128906 5.14648438 31.81445312 C5.11120182 33.54329829 5.05739583 35.27174765 5 37 C3.35 37 1.7 37 0 37 C0 24.79 0 12.58 0 0 Z " fill="#141A2F" transform="translate(667,206)"/>
<path d="M0 0 C0.99 0 1.98 0 3 0 C4.60546875 1.96875 4.60546875 1.96875 6.1875 4.5 C6.71730469 5.3353125 7.24710938 6.170625 7.79296875 7.03125 C8.19128906 7.6809375 8.58960938 8.330625 9 9 C10.65 6.03 12.3 3.06 14 0 C14.99 0 15.98 0 17 0 C16.02137131 3.4252004 15.05846643 5.92027305 12.9375 8.8125 C10.47161904 12.86927191 10.20742876 16.33285287 10 21 C9.01 21 8.02 21 7 21 C6.95875 19.72125 6.9175 18.4425 6.875 17.125 C6.33832637 11.91513749 4.13965814 8.36998012 1.27734375 4.06640625 C0 2 0 2 0 0 Z " fill="#444D63" transform="translate(178,281)"/>
<path d="M0 0 C18.48 0 36.96 0 56 0 C56 0.33 56 0.66 56 1 C55.39500671 1.01030746 54.79001343 1.02061493 54.16668701 1.03123474 C47.87257242 1.13937584 41.57859877 1.25396779 35.28466797 1.37231445 C32.9354141 1.41563886 30.58612925 1.45731573 28.23681641 1.49731445 C24.8609076 1.55507715 21.48515439 1.61875468 18.109375 1.68359375 C16.53261993 1.70866249 16.53261993 1.70866249 14.92401123 1.73423767 C13.45293915 1.7641555 13.45293915 1.7641555 11.95214844 1.79467773 C11.09055115 1.81022202 10.22895386 1.8257663 9.34124756 1.84178162 C7.10834895 1.99267792 5.14579455 2.38162272 3 3 C3 2.34 3 1.68 3 1 C2.34 1 1.68 1 1 1 C1 1.99 1 2.98 1 4 C12.22 4 23.44 4 35 4 C35 4.33 35 4.66 35 5 C23.45 5 11.9 5 0 5 C0 3.35 0 1.7 0 0 Z " fill="#3B8BE9" transform="translate(806,222)"/>
<path d="M0 0 C0.33 0 0.66 0 1 0 C1 28.71 1 57.42 1 87 C-1.31 87 -3.62 87 -6 87 C-5.34 86.01 -4.68 85.02 -4 84 C-3.01 84 -2.02 84 -1 84 C-0.67 56.28 -0.34 28.56 0 0 Z " fill="#04071C" transform="translate(905,74)"/>
<path d="M0 0 C0.99 0 1.98 0 3 0 C3 0.99 3 1.98 3 3 C4.65 3.33 6.3 3.66 8 4 C8 4.66 8 5.32 8 6 C6.68 6 5.36 6 4 6 C4 9.63 4 13.26 4 17 C5.32 17 6.64 17 8 17 C8 17.66 8 18.32 8 19 C5.125 19.125 5.125 19.125 2 19 C0 17 0 17 -0.1953125 14.3984375 C-0.17210937 13.40070313 -0.14890625 12.40296875 -0.125 11.375 C-0.10695313 10.37210937 -0.08890625 9.36921875 -0.0703125 8.3359375 C-0.04710937 7.56507813 -0.02390625 6.79421875 0 6 C-0.66 6 -1.32 6 -2 6 C-2 5.01 -2 4.02 -2 3 C-1.34 3 -0.68 3 0 3 C0 2.01 0 1.02 0 0 Z " fill="#7C8391" transform="translate(663,283)"/>
<path d="M0 0 C0.99 0.495 0.99 0.495 2 1 C2.08333357 5.8333472 1.95261487 10.23692563 1 15 C1.763125 15 2.52625 15 3.3125 15 C7.875 15 12.4375 15 17 15 C17.33 12.69 17.66 10.38 18 8 C18.33 8 18.66 8 19 8 C19 11.63 19 15.26 19 19 C12.73 19 6.46 19 0 19 C0 12.73 0 6.46 0 0 Z " fill="#0A58CB" transform="translate(685,143)"/>
<path d="M0 0 C6.57692308 0.57692308 6.57692308 0.57692308 8 2 C8.45378151 7.21848739 8.45378151 7.21848739 6.875 9.9375 C5 11 5 11 1.875 10.8125 C0.92625 10.544375 -0.0225 10.27625 -1 10 C-2.38125018 7.23749964 -2.19079306 5.05268901 -2 2 C-1.34 1.34 -0.68 0.68 0 0 Z " fill="#EFEFF1" transform="translate(329,289)"/>
<path d="M0 0 C3 0.25 3 0.25 5 2.25 C5.33661952 5.4142235 5.49943411 7.43513382 3.8125 10.1875 C2 11.25 2 11.25 -0.5625 11.0625 C-3 10.25 -3 10.25 -5 8.25 C-5.25 5.25 -5.25 5.25 -5 2.25 C-3 0.25 -3 0.25 0 0 Z " fill="#F0F0F2" transform="translate(459,288.75)"/>
<path d="M0 0 C3.625 0.375 3.625 0.375 7 1 C8.33359073 7.42548263 8.33359073 7.42548263 6.875 9.9375 C4.37987679 11.35140315 2.82190981 11.43413997 0 11 C-2.30163882 7.54754176 -2.34490322 6.05261287 -2 2 C-1.34 1.34 -0.68 0.68 0 0 Z " fill="#EDEDEF" transform="translate(559,289)"/>
<path d="M0 0 C0.99 0 1.98 0 3 0 C3 11.88 3 23.76 3 36 C1.35 35.67 -0.3 35.34 -2 35 C-2 32.33333333 -2 29.66666667 -2 27 C-1.34 27 -0.68 27 0 27 C-0.01160156 26.14535156 -0.02320313 25.29070312 -0.03515625 24.41015625 C-0.04417969 23.30542969 -0.05320312 22.20070312 -0.0625 21.0625 C-0.07410156 19.96035156 -0.08570313 18.85820312 -0.09765625 17.72265625 C0 15 0 15 1 14 C1.23481693 11.81707226 1.41363323 9.62796826 1.5625 7.4375 C1.64628906 6.23996094 1.73007812 5.04242188 1.81640625 3.80859375 C1.87699219 2.88175781 1.93757812 1.95492187 2 1 C1.34 0.67 0.68 0.34 0 0 Z " fill="#0A0E1D" transform="translate(695,207)"/>
<path d="M0 0 C1.485 0.99 1.485 0.99 3 2 C3 2.99 3 3.98 3 5 C2.34 5 1.68 5 1 5 C1 30.74 1 56.48 1 83 C0.67 83 0.34 83 0 83 C0 55.61 0 28.22 0 0 Z " fill="#E6E8EC" transform="translate(57,79)"/>
<path d="M0 0 C0.66 1.32 1.32 2.64 2 4 C0.700625 3.979375 -0.59875 3.95875 -1.9375 3.9375 C-3.29165633 3.91600546 -4.64756083 3.92851801 -6 4 C-7.20561184 4.98267859 -7.20561184 4.98267859 -7.09765625 6.84765625 C-7.08605469 7.57855469 -7.07445312 8.30945313 -7.0625 9.0625 C-7.041875 10.361875 -7.02125 11.66125 -7 13 C-3.65747276 13.07427838 -1.1964086 13.06546953 2 12 C1.67 13.32 1.34 14.64 1 16 C-6.22891566 16.48192771 -6.22891566 16.48192771 -9.5 14.4375 C-11.61006839 11.00863886 -11.62491523 8.95779649 -11 5 C-7.74180693 0.49602723 -5.51527888 -0.6413115 0 0 Z " fill="#62677B" transform="translate(543,286)"/>
<path d="M0 0 C0.99 0 1.98 0 3 0 C3 0.99 3 1.98 3 3 C4.65 3.33 6.3 3.66 8 4 C8 4.66 8 5.32 8 6 C6.35 6 4.7 6 3 6 C3.33 9.3 3.66 12.6 4 16 C5.32 16.33 6.64 16.66 8 17 C8 17.66 8 18.32 8 19 C5.125 19.125 5.125 19.125 2 19 C0 17 0 17 -0.1953125 14.3984375 C-0.17210937 13.40070313 -0.14890625 12.40296875 -0.125 11.375 C-0.10695313 10.37210937 -0.08890625 9.36921875 -0.0703125 8.3359375 C-0.03550781 7.17964844 -0.03550781 7.17964844 0 6 C-0.99 6 -1.98 6 -3 6 C-2.67 5.01 -2.34 4.02 -2 3 C-1.34 3 -0.68 3 0 3 C0 2.01 0 1.02 0 0 Z " fill="#4A526A" transform="translate(764,283)"/>
<path d="M0 0 C2.5 0.25 2.5 0.25 4.5 2.25 C4.75 5.75 4.75 5.75 4.5 9.25 C2.5 11.25 2.5 11.25 0 11.5 C-2.5 11.25 -2.5 11.25 -4.5 9.25 C-4.75 5.75 -4.75 5.75 -4.5 2.25 C-2.5 0.25 -2.5 0.25 0 0 Z " fill="#F0F0F1" transform="translate(209.5,288.75)"/>
<path d="M0 0 C1.32 0 2.64 0 4 0 C2.27592413 4.38855677 -0.82973873 6.91486937 -5 9 C-7.04055005 9.07065617 -9.08334257 9.08421976 -11.125 9.0625 C-12.22070312 9.05347656 -13.31640625 9.04445312 -14.4453125 9.03515625 C-15.70988281 9.01775391 -15.70988281 9.01775391 -17 9 C-17.33 7.68 -17.66 6.36 -18 5 C-16.95199219 4.97421875 -15.90398437 4.9484375 -14.82421875 4.921875 C-13.44527098 4.86559142 -12.06636635 4.80824412 -10.6875 4.75 C-9.99720703 4.73582031 -9.30691406 4.72164062 -8.59570312 4.70703125 C-6.30313277 4.63690588 -6.30313277 4.63690588 -3 4 C-1.26233375 2.0311897 -1.26233375 2.0311897 0 0 Z " fill="#0D132A" transform="translate(282,234)"/>
<path d="M0 0 C0.81694336 0.02094727 1.63388672 0.04189453 2.47558594 0.06347656 C3.80976563 0.0828125 3.80976563 0.0828125 5.17089844 0.10253906 C6.55148437 0.1528125 6.55148437 0.1528125 7.95996094 0.20410156 C8.89582031 0.22214844 9.83167969 0.24019531 10.79589844 0.25878906 C13.10163109 0.30584483 15.40527039 0.37156444 17.70996094 0.45410156 C17.70996094 1.77410156 17.70996094 3.09410156 17.70996094 4.45410156 C9.78996094 4.45410156 1.86996094 4.45410156 -6.29003906 4.45410156 C-2.29003906 0.45410156 -2.29003906 0.45410156 0 0 Z " fill="#080B21" transform="translate(338.2900390625,238.5458984375)"/>
<path d="M0 0 C4.97306516 0.49730652 8.63799813 1.55302334 13 4 C13 4.99 13 5.98 13 7 C12.34 7 11.68 7 11 7 C11 9.64 11 12.28 11 15 C10.01 15 9.02 15 8 15 C8.33 14.67 8.66 14.34 9 14 C9.2500773 11.54190002 9.2500773 11.54190002 9 9 C6.32449708 6.32449708 4.05120106 6.16790611 0.375 5.375 C-1.40777344 4.98441406 -1.40777344 4.98441406 -3.2265625 4.5859375 C-4.14179688 4.39257812 -5.05703125 4.19921875 -6 4 C-5.38125 3.896875 -4.7625 3.79375 -4.125 3.6875 C-1.63473516 3.12474627 -1.63473516 3.12474627 0 0 Z " fill="#212842" transform="translate(194,222)"/>
<path d="M0 0 C0.99 0 1.98 0 3 0 C3 0.99 3 1.98 3 3 C4.32 3 5.64 3 7 3 C7 3.99 7 4.98 7 6 C5.68 6 4.36 6 3 6 C3.33 9.3 3.66 12.6 4 16 C4.99 16.33 5.98 16.66 7 17 C7 17.66 7 18.32 7 19 C4.625 19.125 4.625 19.125 2 19 C0 17 0 17 -0.1953125 14.3984375 C-0.17210937 13.40070313 -0.14890625 12.40296875 -0.125 11.375 C-0.10695313 10.37210937 -0.08890625 9.36921875 -0.0703125 8.3359375 C-0.03550781 7.17964844 -0.03550781 7.17964844 0 6 C-0.99 6 -1.98 6 -3 6 C-3 5.01 -3 4.02 -3 3 C-2.01 3 -1.02 3 0 3 C0 2.01 0 1.02 0 0 Z " fill="#4A5369" transform="translate(382,283)"/>
<path d="M0 0 C0.61875 0.28875 1.2375 0.5775 1.875 0.875 C5.45833054 2.16499899 8.92725541 2.65777615 12.6953125 3.14453125 C15.84086942 4.31211933 16.55355374 6.06456494 18 9 C10.11397658 9.4731614 4.79219135 9.17981006 -2 5 C-1.34 3.35 -0.68 1.7 0 0 Z " fill="#242A40" transform="translate(743,235)"/>
<path d="M0 0 C0.99 0 1.98 0 3 0 C3 0.66 3 1.32 3 2 C3.66 2 4.32 2 5 2 C5 1.34 5 0.68 5 0 C11.75 0.75 11.75 0.75 14 3 C11.43364441 4.61585352 10.36929371 5.06011758 7.3125 4.5625 C6.549375 4.376875 5.78625 4.19125 5 4 C3.26043342 5.73956658 3.62809614 8.1936622 3.4375 10.5625 C3.35371094 11.57441406 3.26992188 12.58632813 3.18359375 13.62890625 C3.12300781 14.41136719 3.06242188 15.19382812 3 16 C2.01 16 1.02 16 0 16 C0 10.72 0 5.44 0 0 Z " fill="#525B6F" transform="translate(680,286)"/>
<path d="M0 0 C2.5 0.25 2.5 0.25 4.5 2.25 C4.75 5.25 4.75 5.25 4.5 8.25 C2.5 10.25 2.5 10.25 0 10.5 C-2.5 10.25 -2.5 10.25 -4.5 8.25 C-4.75 5.25 -4.75 5.25 -4.5 2.25 C-2.5 0.25 -2.5 0.25 0 0 Z " fill="#F2F3F4" transform="translate(289.5,288.75)"/>
<path d="M0 0 C1.32 0 2.64 0 4 0 C4 7.92 4 15.84 4 24 C3.67 24 3.34 24 3 24 C2.67 22.02 2.34 20.04 2 18 C1.34 18.33 0.68 18.66 0 19 C0 12.73 0 6.46 0 0 Z " fill="#0C0E18" transform="translate(424,207)"/>
<path d="M0 0 C0.33 0 0.66 0 1 0 C1 16.83 1 33.66 1 51 C-3.62 51 -8.24 51 -13 51 C-13 50.67 -13 50.34 -13 50 C-11.07942708 49.77213542 -9.15885417 49.54427083 -7.23828125 49.31640625 C-4.81008489 48.97315336 -2.40471494 48.48094299 0 48 C0 32.16 0 16.32 0 0 Z " fill="#040719" transform="translate(55,110)"/>
<path d="M0 0 C0.66 0 1.32 0 2 0 C2.10812003 2.75105422 2.18734945 5.49785087 2.25 8.25 C2.30027344 9.41595703 2.30027344 9.41595703 2.3515625 10.60546875 C2.41603054 14.37684894 2.44268465 16.36351784 0.2421875 19.52734375 C-3.37147389 21.9007764 -5.74364395 21.34325452 -10 21 C-10.66 20.67 -11.32 20.34 -12 20 C-11.505 18.515 -11.505 18.515 -11 17 C-9.3603125 17.309375 -9.3603125 17.309375 -7.6875 17.625 C-3.9161599 18.40346525 -3.9161599 18.40346525 -1 16 C-0.67243501 12.97471088 -0.67243501 12.97471088 -0.875 9.5625 C-1.08629442 3.25888325 -1.08629442 3.25888325 0 0 Z " fill="#474F66" transform="translate(295,287)"/>
<path d="M0 0 C0.99 0.474375 1.98 0.94875 3 1.4375 C6.99189495 3.16813748 10.68114582 3.62115314 15 4 C15 4.33 15 4.66 15 5 C12.69 5.66 10.38 6.32 8 7 C11.3 7.33 14.6 7.66 18 8 C18 8.33 18 8.66 18 9 C10.11397658 9.4731614 4.79219135 9.17981006 -2 5 C-1.34 3.35 -0.68 1.7 0 0 Z " fill="#272D44" transform="translate(183,235)"/>
<path d="M0 0 C9.57 0 19.14 0 29 0 C29 0.99 29 1.98 29 3 C25.37 3 21.74 3 18 3 C18 2.67 18 2.34 18 2 C15.69 2 13.38 2 11 2 C11 2.33 11 2.66 11 3 C7.37 3 3.74 3 0 3 C0 2.01 0 1.02 0 0 Z " fill="#030B28" transform="translate(469,207)"/>
<path d="M0 0 C0.66 0 1.32 0 2 0 C1.67 1.65 1.34 3.3 1 5 C4.3 5 7.6 5 11 5 C11 5.33 11 5.66 11 6 C7.7 6 4.4 6 1 6 C1.99 7.32 2.98 8.64 4 10 C7.62563814 10.33380814 7.62563814 10.33380814 11 10 C10.67 10.99 10.34 11.98 10 13 C2.77108434 13.48192771 2.77108434 13.48192771 -0.5 11.4375 C-2.5390434 8.12405448 -2.42431591 5.81884318 -2 2 C-1.34 1.34 -0.68 0.68 0 0 Z " fill="#4F576D" transform="translate(716,289)"/>
<path d="M0 0 C1.67542976 0.28604898 3.34385343 0.61781233 5 1 C5 1.99 5 2.98 5 4 C-0.68854922 7.84361434 -5.54425869 6.95342799 -12 6 C-10 3 -10 3 -7.87109375 2.3046875 C-6.66646484 2.09199219 -6.66646484 2.09199219 -5.4375 1.875 C-2.43064045 1.51508987 -2.43064045 1.51508987 0 0 Z " fill="#0D142B" transform="translate(613,236)"/>
<path d="M0 0 C0 0.99 0 1.98 0 3 C-1.65 3.66 -3.3 4.32 -5 5 C-5.33 8.63 -5.66 12.26 -6 16 C-6.99 16 -7.98 16 -9 16 C-9 11.05 -9 6.1 -9 1 C-3 0 -3 0 0 0 Z " fill="#586073" transform="translate(510,286)"/>
<path d="M0 0 C0.66 0 1.32 0 2 0 C2.5775 0.639375 3.155 1.27875 3.75 1.9375 C6.48382274 4.44350418 8.36785602 4.66980509 12 5 C11.360625 5.309375 10.72125 5.61875 10.0625 5.9375 C8.06389179 6.8345163 8.06389179 6.8345163 7 8 C9.64 8.33 12.28 8.66 15 9 C15 9.33 15 9.66 15 10 C5.33602746 10.68755536 5.33602746 10.68755536 1.375 8.25 C0.59125 7.5075 -0.1925 6.765 -1 6 C-1 2 -1 2 0 0 Z " fill="#1C2137" transform="translate(402,234)"/>
<path d="M0 0 C-0.99 1.485 -0.99 1.485 -2 3 C0.64 3 3.28 3 6 3 C6 3.33 6 3.66 6 4 C5.41992188 4.06058594 4.83984375 4.12117187 4.2421875 4.18359375 C-0.20092863 4.66016561 -4.59905423 5.21008666 -9 6 C-9.99 9.465 -9.99 9.465 -11 13 C-11.33 13 -11.66 13 -12 13 C-12.31658501 8.96354118 -12.4210379 6.67666805 -10.25 3.1875 C-6.79010569 -0.17628613 -4.72715181 -1.6882685 0 0 Z " fill="#2E364F" transform="translate(754,207)"/>
<path d="M0 0 C2.64 0 5.28 0 8 0 C8 0.66 8 1.32 8 2 C7.03320312 2.32097656 7.03320312 2.32097656 6.046875 2.6484375 C3.72160885 3.8473523 3.72160885 3.8473523 3.390625 6.6015625 C3.34421875 7.59929687 3.2978125 8.59703125 3.25 9.625 C3.19328125 10.62789063 3.1365625 11.63078125 3.078125 12.6640625 C3.05234375 13.43492187 3.0265625 14.20578125 3 15 C2.01 15 1.02 15 0 15 C0 10.05 0 5.1 0 0 Z " fill="#4A5167" transform="translate(308,287)"/>
<path d="M0 0 C11.52164009 -0.3690205 11.52164009 -0.3690205 17 2 C16.01 2.495 16.01 2.495 15 3 C15 3.66 15 4.32 15 5 C10.91556885 6.53166168 7.20544343 5.63081652 3 5 C2.67 4.01 2.34 3.02 2 2 C1.34 1.34 0.68 0.68 0 0 Z " fill="#1E2745" transform="translate(599,206)"/>
<path d="M0 0 C3.63 0 7.26 0 11 0 C11 5.94 11 11.88 11 18 C7.04 18 3.08 18 -1 18 C-1 17.67 -1 17.34 -1 17 C0.0725 16.855625 1.145 16.71125 2.25 16.5625 C6.06645907 16.05134338 6.06645907 16.05134338 10 15 C9.34 11.04 8.68 7.08 8 3 C5.36 2.34 2.72 1.68 0 1 C0 0.67 0 0.34 0 0 Z " fill="#0254DA" transform="translate(655,143)"/>
<path d="M0 0 C3.17871322 -0.35319036 4.55842109 -0.3327841 7.15625 1.625 C9.53716395 4.69194 9.41663162 6.41747268 9.25 10.25 C9.21390625 11.32765625 9.1778125 12.4053125 9.140625 13.515625 C9.07101562 14.74539063 9.07101562 14.74539063 9 16 C8.01 16 7.02 16 6 16 C5.98582031 15.24074219 5.97164062 14.48148437 5.95703125 13.69921875 C5.81409889 10.7208174 5.61335013 7.91989218 5 5 C2.61012067 2.8613923 2.61012067 2.8613923 0 2 C0 1.34 0 0.68 0 0 Z " fill="#535B6E" transform="translate(595,286)"/>
<path d="M0 0 C6.75 0.875 6.75 0.875 9 2 C8.67 3.65 8.34 5.3 8 7 C0.575 6.01 0.575 6.01 -7 5 C-7 4.67 -7 4.34 -7 4 C-5.02 4 -3.04 4 -1 4 C-0.67 2.68 -0.34 1.36 0 0 Z " fill="#242941" transform="translate(199,206)"/>
<path d="M0 0 C0.5625 1.9375 0.5625 1.9375 1 4 C0 5 0 5 -3.51000977 5.11352539 C-5.07048422 5.11336626 -6.63096393 5.10767142 -8.19140625 5.09765625 C-9.01124496 5.0962413 -9.83108368 5.09482635 -10.67576599 5.09336853 C-13.30471382 5.08775289 -15.93357773 5.07519779 -18.5625 5.0625 C-20.34049357 5.05748701 -22.11848846 5.05292376 -23.89648438 5.04882812 C-28.26435545 5.03777839 -32.63216348 5.02050331 -37 5 C-37 4.67 -37 4.34 -37 4 C-26.44 4 -15.88 4 -5 4 C-5 3.34 -5 2.68 -5 2 C-2 0 -2 0 0 0 Z " fill="#05091C" transform="translate(243,156)"/>
<path d="M0 0 C8.25 0 16.5 0 25 0 C25 0.33 25 0.66 25 1 C22.36 1.33 19.72 1.66 17 2 C17 2.33 17 2.66 17 3 C11.66666667 3 6.33333333 3 1 3 C0.67 2.01 0.34 1.02 0 0 Z " fill="#39415F" transform="translate(263,75)"/>
<path d="M0 0 C2.8125 0.5 2.8125 0.5 4.8125 2.5 C2.8125 4.5 2.8125 4.5 0.1875 4.625 C-0.59625 4.58375 -1.38 4.5425 -2.1875 4.5 C-2.455625 5.61375 -2.72375 6.7275 -3 7.875 C-4.1875 11.5 -4.1875 11.5 -7.1875 13.5 C-8.71310954 7.63227101 -8.71310954 7.63227101 -7.3515625 4.69921875 C-5.13612 1.74294356 -3.6571563 0.57367158 0 0 Z " fill="#707789" transform="translate(209.1875,285.5)"/>
<path d="M0 0 C1.875 1.375 1.875 1.375 3 3 C3 3.99 3 4.98 3 6 C1.68 6.33 0.36 6.66 -1 7 C-1 6.01 -1 5.02 -1 4 C-2.918125 3.814375 -2.918125 3.814375 -4.875 3.625 C-8.75 3.25 -8.75 3.25 -11 1 C-6.94405371 -1.02797315 -4.37353074 -1.23599782 0 0 Z " fill="#090F24" transform="translate(766,225)"/>
<path d="M0 0 C2.875 -0.125 2.875 -0.125 6 0 C8 2 8 2 8.1953125 5.0390625 C8.17210937 6.22242188 8.14890625 7.40578125 8.125 8.625 C8.10695313 9.81351562 8.08890625 11.00203125 8.0703125 12.2265625 C8.04710937 13.14179688 8.02390625 14.05703125 8 15 C7.01 15 6.02 15 5 15 C4.96132813 13.75283203 4.96132813 13.75283203 4.921875 12.48046875 C4.86515625 11.39378906 4.8084375 10.30710937 4.75 9.1875 C4.70359375 8.10855469 4.6571875 7.02960938 4.609375 5.91796875 C4.27045978 2.88255768 4.27045978 2.88255768 1.953125 1.11328125 C1.30859375 0.74589844 0.6640625 0.37851562 0 0 Z " fill="#4D5267" transform="translate(630,287)"/>
<path d="M0 0 C0.99 0 1.98 0 3 0 C3 5.28 3 10.56 3 16 C2.01 16 1.02 16 0 16 C0 10.72 0 5.44 0 0 Z " fill="#596174" transform="translate(649,286)"/>
<path d="M0 0 C1.75570313 0.04060547 1.75570313 0.04060547 3.546875 0.08203125 C4.43890625 0.11683594 5.3309375 0.15164062 6.25 0.1875 C5.59 0.826875 4.93 1.46625 4.25 2.125 C2.13397569 3.82832319 2.13397569 3.82832319 2.25 5.1875 C-2.57360189 5.38044408 -6.24646738 4.94497614 -10.75 3.1875 C-7.26391463 -0.10012011 -4.6928191 -0.14078457 0 0 Z " fill="#20283F" transform="translate(269.75,205.8125)"/>
<path d="M0 0 C-0.66 1.32 -1.32 2.64 -2 4 C-6.29 4 -10.58 4 -15 4 C-11.58942065 0.58942065 -11.58942065 0.58942065 -8.0625 -0.25 C-7.39347656 -0.42015625 -6.72445312 -0.5903125 -6.03515625 -0.765625 C-3.76732882 -1.02679515 -2.16439531 -0.67788667 0 0 Z " fill="#0A0E1E" transform="translate(205,239)"/>
<path d="M0 0 C2.96404505 2.80804268 5.44499019 5.18315774 7 9 C6.01 9.33 5.02 9.66 4 10 C3.34 10.66 2.68 11.32 2 12 C-0.125 9.9375 -0.125 9.9375 -2 7 C-1.25 3.1875 -1.25 3.1875 0 0 Z " fill="#EFF4F9" transform="translate(307,90)"/>
<path d="M0 0 C0 0.99 0 1.98 0 3 C-1.65 3.66 -3.3 4.32 -5 5 C-5.33 8.63 -5.66 12.26 -6 16 C-6.66 16 -7.32 16 -8 16 C-8 11.05 -8 6.1 -8 1 C-3 0 -3 0 0 0 Z " fill="#434B61" transform="translate(260,286)"/>
<path d="M0 0 C0.66 0 1.32 0 2 0 C2 0.66 2 1.32 2 2 C2.66 2 3.32 2 4 2 C3.67 6.29 3.34 10.58 3 15 C2.01 15 1.02 15 0 15 C0 10.05 0 5.1 0 0 Z " fill="#4D556B" transform="translate(614,287)"/>
<path d="M0 0 C-0.33 1.32 -0.66 2.64 -1 4 C-2.093125 3.814375 -3.18625 3.62875 -4.3125 3.4375 C-7.93624133 2.7421932 -7.93624133 2.7421932 -11 4 C-11.33 6.31 -11.66 8.62 -12 11 C-12.33 11 -12.66 11 -13 11 C-13.47668394 3.84974093 -13.47668394 3.84974093 -11.5625 0.4375 C-7.67352831 -1.74411826 -4.25227297 -0.83591691 0 0 Z " fill="#5F6779" transform="translate(295,287)"/>
<path d="M0 0 C0.99 0 1.98 0 3 0 C3 0.99 3 1.98 3 3 C4.97536745 2.65213292 4.97536745 2.65213292 7 2 C7.33 1.34 7.66 0.68 8 0 C8.125 3.375 8.125 3.375 8 7 C7.34 7.66 6.68 8.32 6 9 C2 9 2 9 0 8 C0.33 7.67 0.66 7.34 1 7 C1.19149081 3.36805359 1.19149081 3.36805359 0 0 Z " fill="#202745" transform="translate(762,229)"/>
<path d="M0 0 C2.99324263 1.0975223 3.84610901 1.67682892 5.25 4.625 C5.4975 5.40875 5.745 6.1925 6 7 C5.360625 7.103125 4.72125 7.20625 4.0625 7.3125 C3.381875 7.539375 2.70125 7.76625 2 8 C1.67 8.99 1.34 9.98 1 11 C-2.0653951 5.60490463 -2.0653951 5.60490463 -1.75 2.6875 C-1 1 -1 1 0 0 Z " fill="#14192F" transform="translate(282,211)"/>
<path d="M0 0 C-0.33 1.32 -0.66 2.64 -1 4 C-2.918125 4.4640625 -2.918125 4.4640625 -4.875 4.9375 C-7.10101675 5.47605244 -8.94739999 5.9737 -11 7 C-11.99 6.34 -12.98 5.68 -14 5 C-12 3 -12 3 -9 2 C-5.5647952 -0.29013653 -4.014669 -0.17842973 0 0 Z " fill="#060A20" transform="translate(199,206)"/>
<path d="M0 0 C0.33 1.32 0.66 2.64 1 4 C-7.58 4 -16.16 4 -25 4 C-25 3.67 -25 3.34 -25 3 C-21.12315913 1.80712589 -18.08378077 1 -14 1 C-14 1.66 -14 2.32 -14 3 C-10.37 3 -6.74 3 -3 3 C-3 2.34 -3 1.68 -3 1 C-2.01 0.67 -1.02 0.34 0 0 Z " fill="#050819" transform="translate(426,157)"/>
<path d="M0 0 C0.33 0 0.66 0 1 0 C1 3.3 1 6.6 1 10 C-0.32 10.33 -1.64 10.66 -3 11 C-4 10 -4 10 -4.09765625 8.15234375 C-4.06510417 6.1015625 -4.03255208 4.05078125 -4 2 C-2.68 2 -1.36 2 0 2 C0 1.34 0 0.68 0 0 Z " fill="#0A1024" transform="translate(590,220)"/>
<path d="M0 0 C0.66 1.32 1.32 2.64 2 4 C0.72125 3.95875 -0.5575 3.9175 -1.875 3.875 C-4.01871492 3.75787127 -4.01871492 3.75787127 -6 4 C-7.95216435 5.95216435 -8.84826645 7.53199953 -10 10 C-10.48468708 3.57789614 -10.48468708 3.57789614 -8.375 1.0625 C-5.43969547 -0.25066255 -3.18136394 -0.21691118 0 0 Z " fill="#41495F" transform="translate(543,286)"/>
<path d="M0 0 C2.97 0 5.94 0 9 0 C7.02 0.99 7.02 0.99 5 2 C2.41073669 4.58926331 2.62601957 6.02705279 2.375 9.625 C2.30023437 10.62789063 2.22546875 11.63078125 2.1484375 12.6640625 C2.09945312 13.43492187 2.05046875 14.20578125 2 15 C1.34 15 0.68 15 0 15 C0 10.05 0 5.1 0 0 Z " fill="#3A435B" transform="translate(580,287)"/>
<path d="M0 0 C0.26218749 3.14624993 0.24754367 4.61837017 -1.5 7.3125 C-2.2425 8.1478125 -2.2425 8.1478125 -3 9 C-3.99 8.67 -4.98 8.34 -6 8 C-6.33 5.69 -6.66 3.38 -7 1 C-1.125 0 -1.125 0 0 0 Z " fill="#0A1125" transform="translate(253,143)"/>
<path d="M0 0 C3.96 0 7.92 0 12 0 C10.68 0.33 9.36 0.66 8 1 C8 1.66 8 2.32 8 3 C8.66 3.33 9.32 3.66 10 4 C6.6875 4.6875 6.6875 4.6875 3 5 C1.0625 3.6875 1.0625 3.6875 0 2 C0 1.34 0 0.68 0 0 Z " fill="#DEE0E4" transform="translate(717,295)"/>
<path d="M0 0 C0.66 0 1.32 0 2 0 C2.35706695 6.30818278 2.35706695 6.30818278 1 8.9375 C-2.26642246 10.67278693 -5.34351452 10.17982715 -9 10 C-9.33 9.34 -9.66 8.68 -10 8 C-8.88625 7.87625 -7.7725 7.7525 -6.625 7.625 C-2.96896323 7.3534187 -2.96896323 7.3534187 -1 5 C-0.35232207 2.42938689 -0.35232207 2.42938689 0 0 Z " fill="#444E66" transform="translate(567,292)"/>
<path d="M0 0 C1.75098126 2.62647188 3.38731308 5.28775382 5 8 C2 8 2 8 -1 7 C-1.33 7.66 -1.66 8.32 -2 9 C-3.5625 6.625 -3.5625 6.625 -5 4 C-3.74458443 1.48916886 -2.49936512 1.12874554 0 0 Z " fill="#202841" transform="translate(591,228)"/>
<path d="M0 0 C0.66 0.33 1.32 0.66 2 1 C1.67 4.96 1.34 8.92 1 13 C0.01 13 -0.98 13 -2 13 C-2 9.04 -2 5.08 -2 1 C-1.34 0.67 -0.68 0.34 0 0 Z " fill="#50576B" transform="translate(627,289)"/>
<path d="M0 0 C3.73639216 1.24546405 4.18756513 2.63404953 6 6 C3.525 7.485 3.525 7.485 1 9 C-0.32 7.02 -1.64 5.04 -3 3 C-2.01 2.01 -1.02 1.02 0 0 Z " fill="#191F39" transform="translate(677,215)"/>
<path d="M0 0 C0.99 0 1.98 0 3 0 C3 0.99 3 1.98 3 3 C4.32 3.33 5.64 3.66 7 4 C5.02 4 3.04 4 1 4 C1 8.29 1 12.58 1 17 C0.67 17 0.34 17 0 17 C0 13.37 0 9.74 0 6 C-0.99 6 -1.98 6 -3 6 C-2.67 5.01 -2.34 4.02 -2 3 C-1.34 3 -0.68 3 0 3 C0 2.01 0 1.02 0 0 Z " fill="#6C7286" transform="translate(764,283)"/>
<path d="M0 0 C0.99 0 1.98 0 3 0 C1.68139111 4.61513112 -0.21355437 8.09897612 -3 12 C-3.99 11.34 -4.98 10.68 -6 10 C-5.07615834 8.32572385 -4.13549431 6.66071997 -3.1875 5 C-2.66542969 4.071875 -2.14335937 3.14375 -1.60546875 2.1875 C-0.81076172 1.1046875 -0.81076172 1.1046875 0 0 Z " fill="#505971" transform="translate(192,281)"/>
<path d="M0 0 C0.99 0.495 0.99 0.495 2 1 C2.4140625 3.06640625 2.4140625 3.06640625 2.625 5.5625 C2.69976563 6.38878906 2.77453125 7.21507812 2.8515625 8.06640625 C2.92503906 9.02353516 2.92503906 9.02353516 3 10 C4.32 10.33 5.64 10.66 7 11 C7 11.66 7 12.32 7 13 C5.00045254 13.04254356 2.99958364 13.04080783 1 13 C0 12 0 12 -0.09765625 9.27734375 C-0.08605469 8.17519531 -0.07445312 7.07304687 -0.0625 5.9375 C-0.05347656 4.83277344 -0.04445313 3.72804688 -0.03515625 2.58984375 C-0.02355469 1.73519531 -0.01195312 0.88054687 0 0 Z " fill="#3B4358" transform="translate(664,289)"/>
<path d="M0 0 C0.99 0 1.98 0 3 0 C4.625 2.75 4.625 2.75 6 6 C5.1875 8.375 5.1875 8.375 4 10 C3.34 8.68 2.68 7.36 2 6 C1.34 6.66 0.68 7.32 0 8 C-1.125 2.25 -1.125 2.25 0 0 Z " fill="#5A6075" transform="translate(358,287)"/>
<path d="M0 0 C0.33 0 0.66 0 1 0 C1.35555556 5.33333333 1.35555556 5.33333333 0 7.875 C-3.25313684 9.70488947 -6.31390109 9.18128355 -10 9 C-10.33 8.34 -10.66 7.68 -11 7 C-9.906875 6.896875 -8.81375 6.79375 -7.6875 6.6875 C-3.55944323 5.95315172 -3.55944323 5.95315172 -1 3 C-0.67 2.01 -0.34 1.02 0 0 Z " fill="#444B63" transform="translate(338,293)"/>
<path d="M0 0 C0.12375 0.53625 0.2475 1.0725 0.375 1.625 C1.3126233 5.18796856 2.34968687 8.69937375 4 12 C2.68 12.33 1.36 12.66 0 13 C-2.45811625 9.31282562 -2.31118164 7.35654296 -2 3 C-1.34 2.01 -0.68 1.02 0 0 Z " fill="#535970" transform="translate(453,288)"/>
<path d="M0 0 C0.33 0 0.66 0 1 0 C1.309375 1.134375 1.61875 2.26875 1.9375 3.4375 C2.62924531 6.78775099 2.62924531 6.78775099 4 8 C6.32817964 8.36760731 8.6618385 8.70241581 11 9 C10.67 9.66 10.34 10.32 10 11 C3.9453125 11.1953125 3.9453125 11.1953125 2 11 C0 9 0 9 -0.1953125 6.8359375 C-0.17210937 6.02382813 -0.14890625 5.21171875 -0.125 4.375 C-0.10695312 3.55773437 -0.08890625 2.74046875 -0.0703125 1.8984375 C-0.04710937 1.27195312 -0.02390625 0.64546875 0 0 Z " fill="#404961" transform="translate(203,291)"/>
<path d="M0 0 C0.66 0 1.32 0 2 0 C2.144375 1.093125 2.28875 2.18625 2.4375 3.3125 C2.88288104 6.93122987 2.88288104 6.93122987 4 10 C3.01 10.33 2.02 10.66 1 11 C-1.43769218 7.34346173 -1.23944439 5.30999899 -1 1 C-0.67 0.67 -0.34 0.34 0 0 Z " fill="#555E76" transform="translate(555,290)"/>
<path d="M0 0 C0.99 0 1.98 0 3 0 C3 3.63 3 7.26 3 11 C2.01 11 1.02 11 0 11 C0 7.37 0 3.74 0 0 Z " fill="#636A7C" transform="translate(476,287)"/>
<path d="M0 0 C1.32 0 2.64 0 4 0 C2.71792641 2.86001033 1.50848764 5.07039412 -1 7 C-2.32 7 -3.64 7 -5 7 C-5.33 6.01 -5.66 5.02 -6 4 C-5.01 4 -4.02 4 -3 4 C-2.525625 3.34 -2.05125 2.68 -1.5625 2 C-1.046875 1.34 -0.53125 0.68 0 0 Z " fill="#080D20" transform="translate(282,234)"/>
<path d="M0 0 C-1.625 2 -1.625 2 -4 4 C-7.25 4.25 -7.25 4.25 -10 4 C-9.625 2.0625 -9.625 2.0625 -9 0 C-5.93109813 -1.53445094 -3.29905734 -0.54984289 0 0 Z " fill="#101934" transform="translate(265,210)"/>
<path d="M0 0 C0.99 0 1.98 0 3 0 C4.38671875 1.6796875 4.38671875 1.6796875 5.6875 3.875 C6.12449219 4.59429687 6.56148437 5.31359375 7.01171875 6.0546875 C8 8 8 8 8 10 C7.01 10.33 6.02 10.66 5 11 C4.16151196 9.54462432 3.32936066 8.08559627 2.5 6.625 C1.80390625 5.40683594 1.80390625 5.40683594 1.09375 4.1640625 C0 2 0 2 0 0 Z " fill="#52586C" transform="translate(178,281)"/>
<path d="M0 0 C-0.33 1.32 -0.66 2.64 -1 4 C-4.3 4 -7.6 4 -11 4 C-9 1 -9 1 -7.1875 0.3125 C-4.76407022 -0.03370425 -2.44491162 -0.06791421 0 0 Z " fill="#090F28" transform="translate(419,239)"/>
<path d="M0 0 C0.33 0.66 0.66 1.32 1 2 C1.99 2 2.98 2 4 2 C4 3.32 4 4.64 4 6 C3.34 6 2.68 6 2 6 C2 6.66 2 7.32 2 8 C0.68 8 -0.64 8 -2 8 C-1.125 2.25 -1.125 2.25 0 0 Z " fill="#19223F" transform="translate(588,214)"/>
<path d="M0 0 C3.26954202 0.56371414 4.82575883 1.49962266 7 4 C6.01 4 5.02 4 4 4 C3.67 5.65 3.34 7.3 3 9 C0.23776722 6.23776722 0.42143709 3.79293383 0 0 Z " fill="#D9DAE1" transform="translate(181,123)"/>
<path d="M0 0 C1.65 0 3.3 0 5 0 C5.66 1.32 6.32 2.64 7 4 C4.03 4 1.06 4 -2 4 C-1.34 2.68 -0.68 1.36 0 0 Z " fill="#E9E9EC" transform="translate(719,289)"/>
<path d="M0 0 C1.32 1.32 2.64 2.64 4 4 C3.67 4.66 3.34 5.32 3 6 C2.21625 6.144375 1.4325 6.28875 0.625 6.4375 C-2.25125721 7.05384083 -3.16384707 7.77728856 -5 10 C-5.66 9.34 -6.32 8.68 -7 8 C-6.21625 7.4225 -5.4325 6.845 -4.625 6.25 C-2.19952756 4.17102363 -1.14305583 2.90959667 0 0 Z " fill="#1B2135" transform="translate(283,229)"/>
<path d="M0 0 C3.96 0 7.92 0 12 0 C10.38262276 3.23475448 9.52370777 4.70572021 7 7 C6.67 5.35 6.34 3.7 6 2 C3.03 1.505 3.03 1.505 0 1 C0 0.67 0 0.34 0 0 Z " fill="#1491FB" transform="translate(343,61)"/>
<path d="M0 0 C0.91058531 3.07322544 1.08886184 5.80097361 1 9 C0.67 9 0.34 9 0 9 C-0.66 13.29 -1.32 17.58 -2 22 C-2.33 22 -2.66 22 -3 22 C-3.24766278 14.32245385 -2.43655724 7.30967172 0 0 Z " fill="#4C95F3" transform="translate(577,101)"/>
<path d="M0 0 C0.33 1.32 0.66 2.64 1 4 C-2 6 -2 6 -4.1875 5.625 C-4.785625 5.41875 -5.38375 5.2125 -6 5 C-5.67 4.01 -5.34 3.02 -5 2 C-5.66 1.67 -6.32 1.34 -7 1 C-3.535 0.505 -3.535 0.505 0 0 Z " fill="#D5D8DD" transform="translate(293,300)"/>
<path d="M0 0 C2.64 0.33 5.28 0.66 8 1 C6 4 6 4 4.0546875 4.51171875 C3.33539062 4.56972656 2.61609375 4.62773437 1.875 4.6875 C-0.043125 4.8421875 -0.043125 4.8421875 -2 5 C-1.67 4.360625 -1.34 3.72125 -1 3.0625 C0.07271225 1.23205433 0.07271225 1.23205433 0 0 Z " fill="#151C38" transform="translate(753,222)"/>
<path d="M0 0 C0.99 0.33 1.98 0.66 3 1 C3.66 1 4.32 1 5 1 C4.67 1.99 4.34 2.98 4 4 C2.68 4 1.36 4 0 4 C-0.99 7.465 -0.99 7.465 -2 11 C-2.33 11 -2.66 11 -3 11 C-3.36923077 4.6 -3.36923077 4.6 -1.5 1.5625 C-1.005 1.046875 -0.51 0.53125 0 0 Z " fill="#252E46" transform="translate(745,209)"/>
<path d="M0 0 C0.33 0 0.66 0 1 0 C1 2.97 1 5.94 1 9 C-2.96 9 -6.92 9 -11 9 C-11 8.67 -11 8.34 -11 8 C-9.9275 7.855625 -8.855 7.71125 -7.75 7.5625 C-5.08337051 7.16250558 -2.58600271 6.72408076 0 6 C0 4.02 0 2.04 0 0 Z " fill="#0852CA" transform="translate(665,152)"/>
<path d="M0 0 C0.33 1.32 0.66 2.64 1 4 C-0.43359375 6.140625 -0.43359375 6.140625 -2.4375 8.25 C-3.09621094 8.95640625 -3.75492187 9.6628125 -4.43359375 10.390625 C-5.20896484 11.18726562 -5.20896484 11.18726562 -6 12 C-6.66 11.67 -7.32 11.34 -8 11 C-5.36 7.37 -2.72 3.74 0 0 Z " fill="#1C2649" transform="translate(363,76)"/>
<path d="M0 0 C0.7734375 0.2165625 0.7734375 0.2165625 1.5625 0.4375 C4.68509571 1.15809901 7.82550692 1.57266439 11 2 C11 2.33 11 2.66 11 3 C4.565 3.495 4.565 3.495 -2 4 C-1.34 2.68 -0.68 1.36 0 0 Z " fill="#060D27" transform="translate(598,207)"/>
<path d="M0 0 C0.99 0.33 1.98 0.66 3 1 C3.185625 2.7015625 3.185625 2.7015625 3.375 4.4375 C3.684375 6.2009375 3.684375 6.2009375 4 8 C4.66 8.33 5.32 8.66 6 9 C4.68 9.33 3.36 9.66 2 10 C-0.4294516 6.3558226 -0.16179575 4.28758728 0 0 Z " fill="#63687E" transform="translate(324,291)"/>
<path d="M0 0 C0.66 0.33 1.32 0.66 2 1 C2 2.32 2 3.64 2 5 C5.3 5 8.6 5 12 5 C12 5.33 12 5.66 12 6 C10.22925083 6.02705729 8.45838289 6.04642195 6.6875 6.0625 C5.70136719 6.07410156 4.71523438 6.08570313 3.69921875 6.09765625 C1 6 1 6 -2 5 C-1.34 3.35 -0.68 1.7 0 0 Z " fill="#373C51" transform="translate(263,238)"/>
<path d="M0 0 C0.66 0 1.32 0 2 0 C1.67 1.65 1.34 3.3 1 5 C4.3 5 7.6 5 11 5 C11 5.33 11 5.66 11 6 C5.06 6.495 5.06 6.495 -1 7 C-1 1 -1 1 0 0 Z " fill="#3B435C" transform="translate(716,289)"/>
<path d="M0 0 C-0.99 1.485 -0.99 1.485 -2 3 C-5 3.3125 -5 3.3125 -8 3 C-8.66 2.34 -9.32 1.68 -10 1 C-6.1496895 -1.56687367 -4.41430237 -0.83288724 0 0 Z " fill="#5E677B" transform="translate(726,287)"/>
<path d="M0 0 C2.875 -0.125 2.875 -0.125 6 0 C6.66 0.66 7.32 1.32 8 2 C7.34 2.66 6.68 3.32 6 4 C2.375 3.625 2.375 3.625 -1 3 C-0.67 2.01 -0.34 1.02 0 0 Z " fill="#5E657A" transform="translate(206,286)"/>
<path d="M0 0 C0.66 1.32 1.32 2.64 2 4 C1.01 4 0.02 4 -1 4 C-1 4.66 -1 5.32 -1 6 C-2.32 5.34 -3.64 4.68 -5 4 C-4.67 3.01 -4.34 2.02 -4 1 C-2 0 -2 0 0 0 Z " fill="#121627" transform="translate(684,221)"/>
<path d="M0 0 C0 0.66 0 1.32 0 2 C0.66 2 1.32 2 2 2 C1.67 2.66 1.34 3.32 1 4 C-2.63 3.67 -6.26 3.34 -10 3 C-10 2.67 -10 2.34 -10 2 C-3.375 0 -3.375 0 0 0 Z " fill="#060C26" transform="translate(276,207)"/>
<path d="M0 0 C0.33 0.99 0.66 1.98 1 3 C0.38125 3.5775 -0.2375 4.155 -0.875 4.75 C-2.81347053 6.80249821 -3.90014249 8.43366582 -5 11 C-5.66 10.67 -6.32 10.34 -7 10 C-5.33248852 6.05860922 -2.77289351 3.2107188 0 0 Z " fill="#202841" transform="translate(317,129)"/>
<path d="M0 0 C0.66 0 1.32 0 2 0 C1.67 1.32 1.34 2.64 1 4 C-1.64 4 -4.28 4 -7 4 C-7.33 3.34 -7.66 2.68 -8 2 C-6.865625 1.855625 -5.73125 1.71125 -4.5625 1.5625 C-1.19222799 1.38828522 -1.19222799 1.38828522 0 0 Z " fill="#50576E" transform="translate(543,298)"/>
<path d="M0 0 C0.99 0 1.98 0 3 0 C2.67 2.64 2.34 5.28 2 8 C1.01 8 0.02 8 -1 8 C-0.67 5.36 -0.34 2.72 0 0 Z " fill="#5A5F74" transform="translate(424,298)"/>
<path d="M0 0 C2.625 0.375 2.625 0.375 5 1 C1.125 3 1.125 3 0 3 C-0.33 6.3 -0.66 9.6 -1 13 C-1.33 13 -1.66 13 -2 13 C-2.05391993 11.20866022 -2.09275571 9.41686101 -2.125 7.625 C-2.14820313 6.62726563 -2.17140625 5.62953125 -2.1953125 4.6015625 C-2 2 -2 2 0 0 Z " fill="#EBECEE" transform="translate(619,289)"/>
<path d="M0 0 C0.66 0 1.32 0 2 0 C2 3.63 2 7.26 2 11 C1.34 10.67 0.68 10.34 0 10 C-0.77811718 6.18015204 -1.24386556 3.73159669 0 0 Z " fill="#333E5A" transform="translate(295,287)"/>
<path d="M0 0 C1.32 0 2.64 0 4 0 C4 0.66 4 1.32 4 2 C4.99 2.66 5.98 3.32 7 4 C4.03 4 1.06 4 -2 4 C-1.34 2.68 -0.68 1.36 0 0 Z " fill="#070B23" transform="translate(754,206)"/>
<path d="M0 0 C3.63 0 7.26 0 11 0 C8 3 8 3 4.9375 3.375 C3.968125 3.25125 2.99875 3.1275 2 3 C1.34 2.01 0.68 1.02 0 0 Z " fill="#15203B" transform="translate(599,206)"/>
<path d="M0 0 C0.33 0.66 0.66 1.32 1 2 C-1.31 4.97 -3.62 7.94 -6 11 C-6.66 10.67 -7.32 10.34 -8 10 C-5.36 6.7 -2.72 3.4 0 0 Z " fill="#252C43" transform="translate(271,137)"/>
<path d="M0 0 C1.32 1.65 2.64 3.3 4 5 C3.01 5 2.02 5 1 5 C1 6.65 1 8.3 1 10 C0.01 9.01 -0.98 8.02 -2 7 C-1.34 4.69 -0.68 2.38 0 0 Z " fill="#E7ECF3" transform="translate(307,90)"/>
<path d="M0 0 C0.33 0 0.66 0 1 0 C1.144375 1.11375 1.28875 2.2275 1.4375 3.375 C1.78372035 6.82142047 1.78372035 6.82142047 3 9 C2.01 9.33 1.02 9.66 0 10 C-1 9 -1 9 -1.1328125 7.1875 C-1.13023437 6.465625 -1.12765625 5.74375 -1.125 5 C-1.12757813 4.278125 -1.13015625 3.55625 -1.1328125 2.8125 C-1 1 -1 1 0 0 Z " fill="#4A5268" transform="translate(284,290)"/>
<path d="M0 0 C0.99 0 1.98 0 3 0 C3 0.99 3 1.98 3 3 C4.32 3.33 5.64 3.66 7 4 C4.03 4 1.06 4 -2 4 C-2.33 4.66 -2.66 5.32 -3 6 C-3 5.01 -3 4.02 -3 3 C-2.01 3 -1.02 3 0 3 C0 2.01 0 1.02 0 0 Z " fill="#6D7588" transform="translate(382,283)"/>
<path d="M0 0 C0.66 0 1.32 0 2 0 C1.54177532 3.46941546 1.10868317 6.67395049 0 10 C-0.99 10 -1.98 10 -3 10 C-2.690625 9.46375 -2.38125 8.9275 -2.0625 8.375 C-0.82172561 5.6015043 -0.4090325 2.99957163 0 0 Z " fill="#3C435A" transform="translate(356,292)"/>
<path d="M0 0 C0.99 0 1.98 0 3 0 C3.33 2.97 3.66 5.94 4 9 C2 8 2 8 1.3671875 6.15234375 C1.20476562 5.42144531 1.04234375 4.69054687 0.875 3.9375 C0.70742188 3.20402344 0.53984375 2.47054688 0.3671875 1.71484375 C0.24601562 1.14894531 0.12484375 0.58304687 0 0 Z " fill="#4A5266" transform="translate(348,287)"/>
<path d="M0 0 C0.99 0.33 1.98 0.66 3 1 C2.67 2.98 2.34 4.96 2 7 C0.68 6.67 -0.64 6.34 -2 6 C-1.34 6 -0.68 6 0 6 C-0.2784375 4.7934375 -0.2784375 4.7934375 -0.5625 3.5625 C-0.706875 2.716875 -0.85125 1.87125 -1 1 C-0.67 0.67 -0.34 0.34 0 0 Z " fill="#070D21" transform="translate(424,231)"/>
<path d="M0 0 C0.99 0 1.98 0 3 0 C3 1.65 3 3.3 3 5 C1.68 5.33 0.36 5.66 -1 6 C-1.042721 4.33388095 -1.04063832 2.66617115 -1 1 C-0.67 0.67 -0.34 0.34 0 0 Z " fill="#060B21" transform="translate(184,213)"/>
<path d="M0 0 C0.99 0.33 1.98 0.66 3 1 C3 1.99 3 2.98 3 4 C2.34 4 1.68 4 1 4 C1 4.66 1 5.32 1 6 C0.01 5.67 -0.98 5.34 -2 5 C-1.34 3.35 -0.68 1.7 0 0 Z " fill="#343B53" transform="translate(743,235)"/>
<path d="M0 0 C1.65 0.33 3.3 0.66 5 1 C5 2.32 5 3.64 5 5 C2.03 4.505 2.03 4.505 -1 4 C-0.34 3.67 0.32 3.34 1 3 C0.67 2.01 0.34 1.02 0 0 Z " fill="#070C1E" transform="translate(189,221)"/>
<path d="M0 0 C0.99 0 1.98 0 3 0 C3 0.66 3 1.32 3 2 C5.31 2 7.62 2 10 2 C10 2.33 10 2.66 10 3 C6.04 3 2.08 3 -2 3 C-1.34 2.01 -0.68 1.02 0 0 Z " fill="#070917" transform="translate(128,158)"/>
<path d="M0 0 C0.33 0.99 0.66 1.98 1 3 C-0.21484375 4.82421875 -0.21484375 4.82421875 -1.9375 6.6875 C-2.50339844 7.31011719 -3.06929688 7.93273437 -3.65234375 8.57421875 C-4.09707031 9.04472656 -4.54179687 9.51523438 -5 10 C-5.33 9.34 -5.66 8.68 -6 8 C-4.02 5.36 -2.04 2.72 0 0 Z " fill="#2583FB" transform="translate(456,61)"/>
<path d="M0 0 C0.99 0 1.98 0 3 0 C3 0.99 3 1.98 3 3 C4.32 3.33 5.64 3.66 7 4 C4.03 4 1.06 4 -2 4 C-1.34 3.67 -0.68 3.34 0 3 C0 2.01 0 1.02 0 0 Z " fill="#6F7687" transform="translate(663,283)"/>
<path d="M0 0 C0.99 0 1.98 0 3 0 C3 2.31 3 4.62 3 7 C2.34 7 1.68 7 1 7 C0.67 4.69 0.34 2.38 0 0 Z " fill="#2E344B" transform="translate(622,221)"/>
<path d="M0 0 C-1.32 1.32 -2.64 2.64 -4 4 C-5.32 3.34 -6.64 2.68 -8 2 C-5.44123378 -0.55876622 -3.37797483 -1.68898741 0 0 Z " fill="#0B1530" transform="translate(193,209)"/>
<path d="M0 0 C0.66 0.33 1.32 0.66 2 1 C1.67 1.66 1.34 2.32 1 3 C1.99 3.66 2.98 4.32 4 5 C0.37673261 6.2077558 -0.64146369 5.54311128 -4 4 C-2.68 2.68 -1.36 1.36 0 0 Z " fill="#1E263C" transform="translate(596,207)"/>
<path d="M0 0 C0.66 0 1.32 0 2 0 C1.34 4.29 0.68 8.58 0 13 C-0.33 13 -0.66 13 -1 13 C-1.02686553 11.02090602 -1.04633375 9.04171029 -1.0625 7.0625 C-1.07410156 5.96035156 -1.08570313 4.85820313 -1.09765625 3.72265625 C-1 1 -1 1 0 0 Z " fill="#11183D" transform="translate(378,53)"/>
<path d="M0 0 C0.66 0 1.32 0 2 0 C1.34 4.29 0.68 8.58 0 13 C-0.33 13 -0.66 13 -1 13 C-1.02686553 11.02090602 -1.04633375 9.04171029 -1.0625 7.0625 C-1.07410156 5.96035156 -1.08570313 4.85820312 -1.09765625 3.72265625 C-1 1 -1 1 0 0 Z " fill="#E5E6EA" transform="translate(695,289)"/>
<path d="M0 0 C0.93423645 3.01031744 1.04449911 3.86650268 0 7 C-0.66 7.99 -1.32 8.98 -2 10 C-2.25 3.375 -2.25 3.375 0 0 Z " fill="#686E80" transform="translate(453,288)"/>
<path d="M0 0 C1.98 0 3.96 0 6 0 C6.66 1.32 7.32 2.64 8 4 C5.69 3.67 3.38 3.34 1 3 C0.67 2.01 0.34 1.02 0 0 Z " fill="#5E6477" transform="translate(537,286)"/>
<path d="M0 0 C0.66 0.33 1.32 0.66 2 1 C1.67 1.66 1.34 2.32 1 3 C0.01 3.33 -0.98 3.66 -2 4 C-2.33 4.99 -2.66 5.98 -3 7 C-3.33 5.35 -3.66 3.7 -4 2 C-2.125 0.9375 -2.125 0.9375 0 0 Z " fill="#292E44" transform="translate(286,215)"/>
<path d="M0 0 C0.103125 0.598125 0.20625 1.19625 0.3125 1.8125 C1.08876455 4.28243264 2.07088921 5.32251235 4 7 C1 7 1 7 -0.6875 5.5 C-1.120625 5.005 -1.55375 4.51 -2 4 C-1.34 2.68 -0.68 1.36 0 0 Z " fill="#175FC7" transform="translate(459,143)"/>
<path d="M0 0 C2.97 0 5.94 0 9 0 C9 0.33 9 0.66 9 1 C7.6078125 1.1546875 7.6078125 1.1546875 6.1875 1.3125 C2.96745642 2.0070192 1.97420135 2.47740939 0 5 C0 3.35 0 1.7 0 0 Z " fill="#1688FD" transform="translate(685,76)"/>
<path d="M0 0 C1.485 0.99 1.485 0.99 3 2 C2.67 3.32 2.34 4.64 2 6 C1.01 5.67 0.02 5.34 -1 5 C-0.67 3.35 -0.34 1.7 0 0 Z " fill="#050E25" transform="translate(936,57)"/>
</svg>
